<?xml version="1.0" encoding="UTF-8"?>
<svg version="1.1" xmlns="http://www.w3.org/2000/svg" width="2400" height="3909">
<path d="M0 0 C0.66 0 1.32 0 2 0 C3.35076261 1.97933531 4.56188487 3.94220559 5.75390625 6.015625 C6.12663666 6.64988403 6.49936707 7.28414307 6.88339233 7.93762207 C7.69188508 9.31506495 8.49704267 10.69446949 9.29928589 12.07556152 C11.00248136 15.0073636 12.72141393 17.92981194 14.4400177 20.8526001 C15.32374074 22.35553196 16.20669719 23.85891482 17.08891296 25.36273193 C21.30075355 32.53539822 25.60632315 39.64896099 29.9375 46.75 C31.34285675 49.05704298 32.74759462 51.3644619 34.15234375 53.671875 C34.80960449 54.75146484 35.46686523 55.83105469 36.14404297 56.94335938 C39.25866638 62.07294173 42.33891009 67.22294567 45.41943359 72.37304688 C49.24567637 78.76170115 53.11438362 85.12397807 56.98742676 91.48434448 C57.34220093 92.0670108 57.6969751 92.64967712 58.0625 93.25 C58.4174353 93.83290802 58.77237061 94.41581604 59.13806152 95.01638794 C65.49749051 105.4669636 71.74723057 115.98033952 77.97561646 126.50939941 C82.73840501 134.55689031 87.54223807 142.5704522 92.5 150.5 C97.88324357 159.11007201 103.08015391 167.82342076 108.25 176.5625 C114.32177955 186.82453505 120.42719428 197.06351279 126.625 207.25 C126.9723822 207.82110504 127.3197644 208.39221008 127.67767334 208.98062134 C130.11612963 212.98849531 132.55765918 216.99449236 135 221 C137.79385608 225.58200254 140.58621509 230.16490881 143.375 234.75 C143.72158661 235.31975555 144.06817322 235.88951111 144.42526245 236.47653198 C150.65952555 246.73194447 156.7922469 257.04615865 162.90759277 267.37280273 C169.59177956 278.65779342 176.36734696 289.88327795 183.21044922 301.07275391 C186.54279474 306.52361649 189.86788352 311.97887863 193.1875 317.4375 C193.716353 318.3069223 193.716353 318.3069223 194.25588989 319.19390869 C200.5055897 329.47510599 206.64888217 339.81755863 212.77401733 350.17330933 C218.09795081 359.16988483 223.49440268 368.11304487 229 377 C234.92350056 386.56152087 240.71159322 396.19431725 246.4375 405.875 C252.44661324 416.03299614 258.49050186 426.1671559 264.625 436.25 C265.14648117 437.10733734 265.14648117 437.10733734 265.67849731 437.98199463 C268.1166783 441.98941122 270.55793709 445.99494816 273 450 C275.79385608 454.58200254 278.58621509 459.16490881 281.375 463.75 C281.72158661 464.31975555 282.06817322 464.88951111 282.42526245 465.47653198 C288.65952555 475.73194447 294.7922469 486.04615865 300.90759277 496.37280273 C307.59177956 507.65779342 314.36734696 518.88327795 321.21044922 530.07275391 C324.54279478 535.52361656 327.86785811 540.97889403 331.1875 546.4375 C331.53907166 547.01545319 331.89064331 547.59340637 332.25286865 548.18887329 C338.5717986 558.58350405 344.78259782 569.04055163 350.97616577 579.51022339 C355.73876757 587.55744399 360.54241147 595.57072954 365.5 603.5 C370.88324357 612.11007201 376.08015391 620.82342076 381.25 629.5625 C387.32177955 639.82453505 393.42719428 650.06351279 399.625 660.25 C399.9723822 660.82110504 400.3197644 661.39221008 400.67767334 661.98062134 C403.11612963 665.98849531 405.55765918 669.99449236 408 674 C410.79385608 678.58200254 413.58621509 683.16490881 416.375 687.75 C416.72158661 688.31975555 417.06817322 688.88951111 417.42526245 689.47653198 C423.65952555 699.73194447 429.7922469 710.04615865 435.90759277 720.37280273 C442.59177956 731.65779342 449.36734696 742.88327795 456.21044922 754.07275391 C459.54279478 759.52361656 462.86785811 764.97889403 466.1875 770.4375 C466.53907166 771.01545319 466.89064331 771.59340637 467.25286865 772.18887329 C473.5717986 782.58350405 479.78259782 793.04055163 485.97616577 803.51022339 C490.73876757 811.55744399 495.54241147 819.57072954 500.5 827.5 C505.88324357 836.11007201 511.08015391 844.82342076 516.25 853.5625 C522.32177955 863.82453505 528.42719428 874.06351279 534.625 884.25 C534.9723822 884.82110504 535.3197644 885.39221008 535.67767334 885.98062134 C538.11612963 889.98849531 540.55765918 893.99449236 543 898 C545.79385608 902.58200254 548.58621509 907.16490881 551.375 911.75 C551.72158661 912.31975555 552.06817322 912.88951111 552.42526245 913.47653198 C558.65952555 923.73194447 564.7922469 934.04615865 570.90759277 944.37280273 C577.59177956 955.65779342 584.36734696 966.88327795 591.21044922 978.07275391 C594.54279474 983.52361649 597.86788352 988.97887863 601.1875 994.4375 C601.716353 995.3069223 601.716353 995.3069223 602.25588989 996.19390869 C608.5055897 1006.47510599 614.64888217 1016.81755863 620.77401733 1027.17330933 C626.09795081 1036.16988483 631.49440268 1045.11304487 637 1054 C642.92350056 1063.56152087 648.71159322 1073.19431725 654.4375 1082.875 C660.44661324 1093.03299614 666.49050186 1103.1671559 672.625 1113.25 C673.14648117 1114.10733734 673.14648117 1114.10733734 673.67849731 1114.98199463 C676.1166783 1118.98941122 678.55793709 1122.99494816 681 1127 C683.79385608 1131.58200254 686.58621509 1136.16490881 689.375 1140.75 C689.72158661 1141.31975555 690.06817322 1141.88951111 690.42526245 1142.47653198 C696.65952555 1152.73194447 702.7922469 1163.04615865 708.90759277 1173.37280273 C715.59177956 1184.65779342 722.36734696 1195.88327795 729.21044922 1207.07275391 C732.54279478 1212.52361656 735.86785811 1217.97889403 739.1875 1223.4375 C739.53907166 1224.01545319 739.89064331 1224.59340637 740.25286865 1225.18887329 C746.5717986 1235.58350405 752.78259782 1246.04055163 758.97616577 1256.51022339 C763.73876757 1264.55744399 768.54241147 1272.57072954 773.5 1280.5 C778.88324357 1289.11007201 784.08015391 1297.82342076 789.25 1306.5625 C795.32177955 1316.82453505 801.42719428 1327.06351279 807.625 1337.25 C807.9723822 1337.82110504 808.3197644 1338.39221008 808.67767334 1338.98062134 C811.11612963 1342.98849531 813.55765918 1346.99449236 816 1351 C818.79385608 1355.58200254 821.58621509 1360.16490881 824.375 1364.75 C824.72158661 1365.31975555 825.06817322 1365.88951111 825.42526245 1366.47653198 C831.65952555 1376.73194447 837.7922469 1387.04615865 843.90759277 1397.37280273 C850.59177956 1408.65779342 857.36734696 1419.88327795 864.21044922 1431.07275391 C867.54279474 1436.52361649 870.86788352 1441.97887863 874.1875 1447.4375 C874.716353 1448.3069223 874.716353 1448.3069223 875.25588989 1449.19390869 C881.5055897 1459.47510599 887.64888217 1469.81755863 893.77401733 1480.17330933 C899.09795081 1489.16988483 904.49440268 1498.11304487 910 1507 C915.92350056 1516.56152087 921.71159322 1526.19431725 927.4375 1535.875 C933.44661324 1546.03299614 939.49050186 1556.1671559 945.625 1566.25 C945.97265411 1566.82155823 946.32030823 1567.39311646 946.67849731 1567.98199463 C949.1166783 1571.98941122 951.55793709 1575.99494816 954 1580 C956.79385608 1584.58200254 959.58621509 1589.16490881 962.375 1593.75 C962.72158661 1594.31975555 963.06817322 1594.88951111 963.42526245 1595.47653198 C969.65952555 1605.73194447 975.7922469 1616.04615865 981.90759277 1626.37280273 C988.59177956 1637.65779342 995.36734696 1648.88327795 1002.21044922 1660.07275391 C1005.54279478 1665.52361656 1008.86785811 1670.97889403 1012.1875 1676.4375 C1012.71485748 1677.30442978 1012.71485748 1677.30442978 1013.25286865 1678.18887329 C1019.5717986 1688.58350405 1025.78259782 1699.04055163 1031.97616577 1709.51022339 C1036.73876757 1717.55744399 1041.54241147 1725.57072954 1046.5 1733.5 C1051.88324357 1742.11007201 1057.08015391 1750.82342076 1062.25 1759.5625 C1068.32177955 1769.82453505 1074.42719428 1780.06351279 1080.625 1790.25 C1080.9723822 1790.82110504 1081.3197644 1791.39221008 1081.67767334 1791.98062134 C1084.11612963 1795.98849531 1086.55765918 1799.99449236 1089 1804 C1091.79385608 1808.58200254 1094.58621509 1813.16490881 1097.375 1817.75 C1097.72158661 1818.31975555 1098.06817322 1818.88951111 1098.42526245 1819.47653198 C1104.65952555 1829.73194447 1110.7922469 1840.04615865 1116.90759277 1850.37280273 C1123.59177956 1861.65779342 1130.36734696 1872.88327795 1137.21044922 1884.07275391 C1140.54279478 1889.52361656 1143.86785811 1894.97889403 1147.1875 1900.4375 C1147.71485748 1901.30442978 1147.71485748 1901.30442978 1148.25286865 1902.18887329 C1154.56976309 1912.58015564 1160.77886851 1923.03366301 1166.97012329 1933.50015259 C1172.34769941 1942.58720578 1177.80634957 1951.61385839 1183.40209961 1960.56884766 C1189.4494251 1970.27080582 1195.22509383 1980.13423772 1201 1990 C1197.53372096 1992.89081481 1194.02026035 1995.28456467 1190.1171875 1997.546875 C1189.55408371 1997.87498169 1188.99097992 1998.20308838 1188.41081238 1998.5411377 C1187.19930222 1999.24650468 1185.98673959 1999.95006654 1184.77322388 2000.65197754 C1182.17620888 2002.15421383 1179.58439294 2003.66531797 1176.99226379 2005.17596436 C1175.65022193 2005.95801569 1174.30792419 2006.73962807 1172.96537781 2007.52081299 C1166.30992597 2011.39508556 1159.68399299 2015.31799362 1153.0625 2019.25 C1150.8307522 2020.57425756 1148.59898173 2021.89847693 1146.3671875 2023.22265625 C1145.29823242 2023.85703613 1144.22927734 2024.49141602 1143.12792969 2025.14501953 C1138.31754971 2027.99775658 1133.50287619 2030.84320687 1128.6875 2033.6875 C1127.35440796 2034.47495605 1127.35440796 2034.47495605 1125.99438477 2035.27832031 C1124.21942915 2036.32670774 1122.44444559 2037.37504786 1120.66943359 2038.42333984 C1116.11251507 2041.11481413 1111.55629082 2043.80746328 1107 2046.5 C1101.55892255 2049.71540073 1096.11773144 2052.93060775 1090.67578125 2056.14453125 C1080.61244711 2062.08837188 1070.55389578 2068.04020729 1060.5 2074 C1049.56202683 2080.48386001 1038.61796327 2086.95732388 1027.66943359 2093.42333984 C1023.11251506 2096.11481413 1018.55629881 2098.80747679 1014 2101.5 C1012.16666991 2102.58333881 1010.33333658 2103.66667215 1008.5 2104.75 C1007.5925 2105.28625 1006.685 2105.8225 1005.75 2106.375 C887.49999977 2176.25000013 887.49999977 2176.25000013 884.7512207 2177.87426758 C882.9138054 2178.96002039 881.07640311 2180.04579521 879.23901367 2181.1315918 C874.71823958 2183.80308561 870.19725666 2186.47422455 865.67578125 2189.14453125 C855.61244711 2195.08837188 845.55389578 2201.04020729 835.5 2207 C824.56202683 2213.48386001 813.61796327 2219.95732388 802.66943359 2226.42333984 C798.11251506 2229.11481413 793.55629881 2231.80747679 789 2234.5 C787.16666991 2235.58333881 785.33333658 2236.66667215 783.5 2237.75 C782.5925 2238.28625 781.685 2238.8225 780.75 2239.375 C684.49999998 2296.25000001 684.49999998 2296.25000001 681.7512207 2297.87426758 C679.9138054 2298.96002039 678.07640311 2300.04579521 676.23901367 2301.1315918 C671.71823958 2303.80308561 667.19725666 2306.47422455 662.67578125 2309.14453125 C652.61244711 2315.08837188 642.55389578 2321.04020729 632.5 2327 C621.56202683 2333.48386001 610.61796327 2339.95732388 599.66943359 2346.42333984 C595.11251506 2349.11481413 590.55629881 2351.80747679 586 2354.5 C584.16666991 2355.58333881 582.33333658 2356.66667215 580.5 2357.75 C579.5925 2358.28625 578.685 2358.8225 577.75 2359.375 C481.49999997 2416.25000002 481.49999997 2416.25000002 478.7512207 2417.87426758 C476.9138054 2418.96002039 475.07640311 2420.04579521 473.23901367 2421.1315918 C468.71823958 2423.80308561 464.19725666 2426.47422455 459.67578125 2429.14453125 C449.61244711 2435.08837188 439.55389578 2441.04020729 429.5 2447 C418.56202683 2453.48386001 407.61796327 2459.95732388 396.66943359 2466.42333984 C392.11251506 2469.11481413 387.55629881 2471.80747679 383 2474.5 C381.16666991 2475.58333881 379.33333658 2476.66667215 377.5 2477.75 C376.5925 2478.28625 375.685 2478.8225 374.75 2479.375 C278.49999997 2536.25000002 278.49999997 2536.25000002 275.7512207 2537.87426758 C273.9138054 2538.96002039 272.07640311 2540.04579521 270.23901367 2541.1315918 C265.71823958 2543.80308561 261.19725666 2546.47422455 256.67578125 2549.14453125 C246.61244711 2555.08837188 236.55389578 2561.04020729 226.5 2567 C215.56202683 2573.48386001 204.61796327 2579.95732388 193.66943359 2586.42333984 C189.11251506 2589.11481413 184.55629881 2591.80747679 180 2594.5 C178.16666991 2595.58333881 176.33333658 2596.66667215 174.5 2597.75 C173.5925 2598.28625 172.685 2598.8225 171.75 2599.375 C75.49999998 2656.25000001 75.49999998 2656.25000001 72.7512207 2657.87426758 C70.9138054 2658.96002039 69.07640311 2660.04579521 67.23901367 2661.1315918 C62.71823958 2663.80308561 58.19725666 2666.47422455 53.67578125 2669.14453125 C49.13262852 2671.82780233 44.59021479 2674.51232054 40.04833984 2677.19775391 C37.87693875 2678.48153437 35.70538873 2679.76506075 33.53369141 2681.04833984 C30.49399601 2682.84466929 27.45498021 2684.64214422 24.41635132 2686.4402771 C22.67289489 2687.47166647 20.9288627 2688.50208239 19.18481445 2689.5324707 C18.10546631 2690.17144287 17.02611816 2690.81041504 15.9140625 2691.46875 C14.89086914 2692.06945313 13.86767578 2692.67015625 12.81347656 2693.2890625 C9.72722116 2695.16588286 6.7805985 2697.19697939 3.89208984 2699.36523438 C0.83190452 2700.39187719 -1.09582887 2699.23512531 -4 2698 C-6.08175634 2696.85772989 -8.13011009 2695.65328137 -10.1484375 2694.40234375 C-11.00251945 2693.87736549 -11.00251945 2693.87736549 -11.87385559 2693.34178162 C-13.08488687 2692.59689036 -14.29433299 2691.84941663 -15.50228882 2691.09954834 C-18.66393553 2689.13769413 -21.8379287 2687.19603313 -25.01171875 2685.25390625 C-25.63079605 2684.87459961 -26.24987335 2684.49529297 -26.88771057 2684.10449219 C-31.2685677 2681.42734474 -35.68798467 2678.84637374 -40.1875 2676.375 C-46.78375681 2672.74018303 -53.23839863 2668.88942708 -59.6875 2665 C-68.98405339 2659.39363814 -78.3163011 2653.85535952 -87.6875 2648.375 C-88.3004895 2648.01643921 -88.913479 2647.65787842 -89.54504395 2647.28845215 C-93.19522095 2645.15333803 -93.19522095 2645.15333803 -96.84552002 2643.01843262 C-105.03463549 2638.2274137 -113.19819752 2633.39318296 -121.36279297 2628.56054688 C-125.90719099 2625.87143447 -130.45372726 2623.1859413 -135 2620.5 C-136.83334305 2619.41668311 -138.66667639 2618.33334979 -140.5 2617.25 C-141.86125 2616.445625 -141.86125 2616.445625 -143.25 2615.625 C-146 2614 -148.75 2612.375 -151.5 2610.75 C-152.40709717 2610.2139917 -153.31419434 2609.6779834 -154.2487793 2609.12573242 C-156.0861946 2608.03997961 -157.92359689 2606.95420479 -159.76098633 2605.8684082 C-164.28176042 2603.19691439 -168.80274334 2600.52577545 -173.32421875 2597.85546875 C-183.96554957 2591.57023827 -194.60101139 2585.27518174 -205.23236084 2578.9730835 C-215.59295994 2572.83166666 -225.96004974 2566.70131144 -236.33056641 2560.57666016 C-240.88748494 2557.88518587 -245.44370119 2555.19252321 -250 2552.5 C-251.83333009 2551.41666119 -253.66666342 2550.33332785 -255.5 2549.25 C-288.5 2529.75 -321.5 2510.25 -354.5 2490.75 C-355.86064575 2489.94598755 -355.86064575 2489.94598755 -357.2487793 2489.12573242 C-359.0861946 2488.03997961 -360.92359689 2486.95420479 -362.76098633 2485.8684082 C-367.28176042 2483.19691439 -371.80274334 2480.52577545 -376.32421875 2477.85546875 C-386.96554957 2471.57023827 -397.60101139 2465.27518174 -408.23236084 2458.9730835 C-418.59295994 2452.83166666 -428.96004974 2446.70131144 -439.33056641 2440.57666016 C-443.88748494 2437.88518587 -448.44370119 2435.19252321 -453 2432.5 C-454.83333009 2431.41666119 -456.66666342 2430.33332785 -458.5 2429.25 C-491.5 2409.75 -524.5 2390.25 -557.5 2370.75 C-558.86064575 2369.94598755 -558.86064575 2369.94598755 -560.2487793 2369.12573242 C-562.0861946 2368.03997961 -563.92359689 2366.95420479 -565.76098633 2365.8684082 C-570.28176042 2363.19691439 -574.80274334 2360.52577545 -579.32421875 2357.85546875 C-589.96554957 2351.57023827 -600.60101139 2345.27518174 -611.23236084 2338.9730835 C-621.59295994 2332.83166666 -631.96004974 2326.70131144 -642.33056641 2320.57666016 C-646.88748494 2317.88518587 -651.44370119 2315.19252321 -656 2312.5 C-657.83333009 2311.41666119 -659.66666342 2310.33332785 -661.5 2309.25 C-694.5 2289.75 -727.5 2270.25 -760.5 2250.75 C-761.86064575 2249.94598755 -761.86064575 2249.94598755 -763.2487793 2249.12573242 C-765.0861946 2248.03997961 -766.92359689 2246.95420479 -768.76098633 2245.8684082 C-773.28176042 2243.19691439 -777.80274334 2240.52577545 -782.32421875 2237.85546875 C-792.96554957 2231.57023827 -803.60101139 2225.27518174 -814.23236084 2218.9730835 C-824.59295994 2212.83166666 -834.96004974 2206.70131144 -845.33056641 2200.57666016 C-849.88748494 2197.88518587 -854.44370119 2195.19252321 -859 2192.5 C-860.83333009 2191.41666119 -862.66666342 2190.33332785 -864.5 2189.25 C-890.16666667 2174.08333333 -915.83333333 2158.91666667 -941.5 2143.75 C-942.86064575 2142.94598755 -942.86064575 2142.94598755 -944.2487793 2142.12573242 C-946.0861946 2141.03997961 -947.92359689 2139.95420479 -949.76098633 2138.8684082 C-954.28176042 2136.19691439 -958.80274334 2133.52577545 -963.32421875 2130.85546875 C-973.96554957 2124.57023827 -984.60101139 2118.27518174 -995.23236084 2111.9730835 C-1005.59295994 2105.83166666 -1015.96004974 2099.70131144 -1026.33056641 2093.57666016 C-1030.88748494 2090.88518587 -1035.44370119 2088.19252321 -1040 2085.5 C-1041.83333009 2084.41666119 -1043.66666342 2083.33332785 -1045.5 2082.25 C-1078.5 2062.75 -1111.5 2043.25 -1144.5 2023.75 C-1145.4079834 2023.2135083 -1146.3159668 2022.6770166 -1147.25146484 2022.12426758 C-1149.080071 2021.04363898 -1150.9085222 2019.96274811 -1152.73681641 2018.8815918 C-1157.39122323 2016.12967688 -1162.04844699 2013.38273101 -1166.7109375 2010.64453125 C-1177.57821742 2004.25546462 -1188.35616353 1997.75532888 -1199 1991 C-1197.71667102 1986.73219417 -1196.09756958 1983.19890484 -1193.75390625 1979.4140625 C-1193.09076416 1978.33415039 -1192.42762207 1977.25423828 -1191.74438477 1976.14160156 C-1191.38966095 1975.56994263 -1191.03493713 1974.99828369 -1190.66946411 1974.40930176 C-1188.74621963 1971.30924777 -1186.84301071 1968.19691161 -1184.9375 1965.0859375 C-1184.53676773 1964.43278564 -1184.13603546 1963.77963379 -1183.72315979 1963.10668945 C-1179.50756633 1956.22320062 -1175.39671605 1949.27866688 -1171.29098511 1942.32928467 C-1165.92760155 1933.25143657 -1160.56557292 1924.18235095 -1154.90869141 1915.28320312 C-1150.43635573 1908.19554388 -1146.20472658 1900.96210168 -1141.9375 1893.75 C-1135.80305873 1883.38392329 -1129.63611842 1873.04012794 -1123.375 1862.75 C-1123.02788971 1862.17934814 -1122.68077942 1861.60869629 -1122.32315063 1861.02075195 C-1119.53772222 1856.44258514 -1116.74812004 1851.86696603 -1113.95825195 1847.29150391 C-1111.51182879 1843.27888853 -1109.06724706 1839.26515859 -1106.625 1835.25 C-1106.27774872 1834.67924744 -1105.93049744 1834.10849487 -1105.57272339 1833.52044678 C-1099.37935791 1823.33433678 -1093.29407597 1813.08592153 -1087.22515869 1802.82531738 C-1081.27456942 1792.76978579 -1075.20976841 1782.79527049 -1069.05615234 1772.86230469 C-1063.79163671 1764.3412933 -1058.66149197 1755.74576968 -1053.5625 1747.125 C-1047.55338676 1736.96700386 -1041.50949814 1726.8328441 -1035.375 1716.75 C-1035.02734589 1716.17844177 -1034.67969177 1715.60688354 -1034.32150269 1715.01800537 C-1031.53662426 1710.44075371 -1028.7475642 1705.86605443 -1025.95825195 1701.29150391 C-1023.51182881 1697.27888858 -1021.06716557 1693.26520814 -1018.625 1689.25 C-1018.10512009 1688.39536667 -1018.10512009 1688.39536667 -1017.57473755 1687.52346802 C-1011.34047445 1677.26805553 -1005.2077531 1666.95384135 -999.09240723 1656.62719727 C-992.40822044 1645.34220658 -985.63265304 1634.11672205 -978.78955078 1622.92724609 C-975.45720522 1617.47638344 -972.13214189 1612.02110597 -968.8125 1606.5625 C-968.46092834 1605.98454681 -968.10935669 1605.40659363 -967.74713135 1604.81112671 C-961.4282014 1594.41649595 -955.21740218 1583.95944837 -949.02383423 1573.48977661 C-943.77472842 1564.62052526 -938.44634129 1555.81186054 -932.98242188 1547.07275391 C-928.12027955 1539.26381256 -923.43341532 1531.35431935 -918.75 1523.4375 C-912.67822045 1513.17546495 -906.57280572 1502.93648721 -900.375 1492.75 C-899.8539267 1491.89334244 -899.8539267 1491.89334244 -899.32232666 1491.01937866 C-896.53717324 1486.44166942 -893.74784212 1481.86651023 -890.95825195 1477.29150391 C-888.51182881 1473.27888858 -886.06716557 1469.26520814 -883.625 1465.25 C-883.27841339 1464.68024445 -882.93182678 1464.11048889 -882.57473755 1463.52346802 C-876.34047445 1453.26805553 -870.2077531 1442.95384135 -864.09240723 1432.62719727 C-857.40822044 1421.34220658 -850.63265304 1410.11672205 -843.78955078 1398.92724609 C-840.45720526 1393.47638351 -837.13211648 1388.02112137 -833.8125 1382.5625 C-833.45993134 1381.98288513 -833.10736267 1381.40327026 -832.74411011 1380.80609131 C-826.4944103 1370.52489401 -820.35111783 1360.18244137 -814.22598267 1349.82669067 C-808.27511683 1339.77070217 -802.21004965 1329.79572445 -796.05615234 1319.86230469 C-790.79163671 1311.3412933 -785.66149197 1302.74576968 -780.5625 1294.125 C-774.55338676 1283.96700386 -768.50949814 1273.8328441 -762.375 1263.75 C-762.02734589 1263.17844177 -761.67969177 1262.60688354 -761.32150269 1262.01800537 C-758.53662426 1257.44075371 -755.7475642 1252.86605443 -752.95825195 1248.29150391 C-750.51182881 1244.27888858 -748.06716557 1240.26520814 -745.625 1236.25 C-745.27841339 1235.68024445 -744.93182678 1235.11048889 -744.57473755 1234.52346802 C-738.34047445 1224.26805553 -732.2077531 1213.95384135 -726.09240723 1203.62719727 C-719.40822044 1192.34220658 -712.63265304 1181.11672205 -705.78955078 1169.92724609 C-702.45720522 1164.47638344 -699.13214189 1159.02110597 -695.8125 1153.5625 C-695.46092834 1152.98454681 -695.10935669 1152.40659363 -694.74713135 1151.81112671 C-688.4282014 1141.41649595 -682.21740218 1130.95944837 -676.02383423 1120.48977661 C-670.77472842 1111.62052526 -665.44634129 1102.81186054 -659.98242188 1094.07275391 C-655.12027955 1086.26381256 -650.43341532 1078.35431935 -645.75 1070.4375 C-639.67822045 1060.17546495 -633.57280572 1049.93648721 -627.375 1039.75 C-626.8539267 1038.89334244 -626.8539267 1038.89334244 -626.32232666 1038.01937866 C-623.53717324 1033.44166942 -620.74784212 1028.86651023 -617.95825195 1024.29150391 C-615.51182881 1020.27888858 -613.06716557 1016.26520814 -610.625 1012.25 C-610.27841339 1011.68024445 -609.93182678 1011.11048889 -609.57473755 1010.52346802 C-603.34047445 1000.26805553 -597.2077531 989.95384135 -591.09240723 979.62719727 C-584.40822044 968.34220658 -577.63265304 957.11672205 -570.78955078 945.92724609 C-567.45720526 940.47638351 -564.13211648 935.02112137 -560.8125 929.5625 C-560.45993134 928.98288513 -560.10736267 928.40327026 -559.74411011 927.80609131 C-553.4944103 917.52489401 -547.35111783 907.18244137 -541.22598267 896.82669067 C-535.27511683 886.77070217 -529.21004965 876.79572445 -523.05615234 866.86230469 C-517.79163671 858.3412933 -512.66149197 849.74576968 -507.5625 841.125 C-501.55338676 830.96700386 -495.50949814 820.8328441 -489.375 810.75 C-489.02734589 810.17844177 -488.67969177 809.60688354 -488.32150269 809.01800537 C-485.53662426 804.44075371 -482.7475642 799.86605443 -479.95825195 795.29150391 C-477.51182881 791.27888858 -475.06716557 787.26520814 -472.625 783.25 C-472.27841339 782.68024445 -471.93182678 782.11048889 -471.57473755 781.52346802 C-465.34047445 771.26805553 -459.2077531 760.95384135 -453.09240723 750.62719727 C-446.40822044 739.34220658 -439.63265304 728.11672205 -432.78955078 716.92724609 C-429.45720522 711.47638344 -426.13214189 706.02110597 -422.8125 700.5625 C-422.28514252 699.69557022 -422.28514252 699.69557022 -421.74713135 698.81112671 C-415.4282014 688.41649595 -409.21740218 677.95944837 -403.02383423 667.48977661 C-397.77472842 658.62052526 -392.44634129 649.81186054 -386.98242188 641.07275391 C-382.12027955 633.26381256 -377.43341532 625.35431935 -372.75 617.4375 C-366.67822045 607.17546495 -360.57280572 596.93648721 -354.375 586.75 C-354.0276178 586.17889496 -353.6802356 585.60778992 -353.32232666 585.01937866 C-350.53717324 580.44166942 -347.74784212 575.86651023 -344.95825195 571.29150391 C-342.51182881 567.27888858 -340.06716557 563.26520814 -337.625 559.25 C-337.27841339 558.68024445 -336.93182678 558.11048889 -336.57473755 557.52346802 C-330.34047445 547.26805553 -324.2077531 536.95384135 -318.09240723 526.62719727 C-311.40822044 515.34220658 -304.63265304 504.11672205 -297.78955078 492.92724609 C-294.45720526 487.47638351 -291.13211648 482.02112137 -287.8125 476.5625 C-287.45993134 475.98288513 -287.10736267 475.40327026 -286.74411011 474.80609131 C-280.4944103 464.52489401 -274.35111783 454.18244137 -268.22598267 443.82669067 C-262.27511683 433.77070217 -256.21004965 423.79572445 -250.05615234 413.86230469 C-244.79163671 405.3412933 -239.66149197 396.74576968 -234.5625 388.125 C-228.55338676 377.96700386 -222.50949814 367.8328441 -216.375 357.75 C-216.02734589 357.17844177 -215.67969177 356.60688354 -215.32150269 356.01800537 C-212.53662426 351.44075371 -209.7475642 346.86605443 -206.95825195 342.29150391 C-204.51182879 338.27888853 -202.06724706 334.26515859 -199.625 330.25 C-199.10412308 329.39387115 -199.10412308 329.39387115 -198.57272339 328.52044678 C-192.37935791 318.33433678 -186.29407597 308.08592153 -180.22515869 297.82531738 C-174.27456942 287.76978579 -168.20976841 277.79527049 -162.05615234 267.86230469 C-156.79163671 259.3412933 -151.66149197 250.74576968 -146.5625 242.125 C-140.55338676 231.96700386 -134.50949814 221.8328441 -128.375 211.75 C-128.02734589 211.17844177 -127.67969177 210.60688354 -127.32150269 210.01800537 C-124.53662426 205.44075371 -121.7475642 200.86605443 -118.95825195 196.29150391 C-116.51182881 192.27888858 -114.06716557 188.26520814 -111.625 184.25 C-111.27841339 183.68024445 -110.93182678 183.11048889 -110.57473755 182.52346802 C-104.34047445 172.26805553 -98.2077531 161.95384135 -92.09240723 151.62719727 C-85.40822044 140.34220658 -78.63265304 129.11672205 -71.78955078 117.92724609 C-68.45720526 112.47638351 -65.13211648 107.02112137 -61.8125 101.5625 C-61.283647 100.6930777 -61.283647 100.6930777 -60.74411011 99.80609131 C-54.90647484 90.20276926 -49.15966522 80.5474646 -43.4375 70.875 C-37.04235595 60.06603994 -30.55977523 49.32041133 -23.95068359 38.64038086 C-20.36249349 32.84166605 -16.79534445 27.03129786 -13.26171875 21.19921875 C-12.86776917 20.54907806 -12.47381958 19.89893738 -12.06793213 19.22909546 C-10.14896651 16.06067792 -8.23238825 12.89083377 -6.31787109 9.71972656 C-5.6367627 8.59405273 -4.9556543 7.46837891 -4.25390625 6.30859375 C-3.64877197 5.30626709 -3.0436377 4.30394043 -2.42016602 3.27124023 C-1 1 -1 1 0 0 Z " fill="#333333" transform="translate(1199,0)"/>
<path d="M0 0 C7.52073513 4.05061108 14.94369693 8.24224306 22.3125 12.5625 C23.86783447 13.47213501 23.86783447 13.47213501 25.45458984 14.40014648 C35.08068393 20.03523651 44.6846777 25.70758102 54.28222656 31.39111328 C58.85308731 34.09700372 63.42668959 36.79825263 68 39.5 C69.83334629 40.5833114 71.66667963 41.66664473 73.5 42.75 C74.4075 43.28625 75.315 43.8225 76.25 44.375 C238.5 140.25 238.5 140.25 241.24829102 141.87402344 C243.08728211 142.96067774 244.92631225 144.04726596 246.76538086 145.13378906 C251.26246815 147.79077938 255.75893996 150.44879783 260.25390625 153.109375 C268.14472355 157.77833357 276.0385274 162.44174049 283.953125 167.0703125 C296.52389316 174.42276871 309.06481512 181.81615369 321.53955078 189.33105469 C332.58657924 195.97506577 343.71767408 202.47383485 354.84532166 208.98144531 C363.03449203 213.77252426 371.19813062 218.60677744 379.36279297 223.43945312 C383.90719099 226.12856553 388.45372726 228.8140587 393 231.5 C394.83334305 232.58331689 396.66667639 233.66665021 398.5 234.75 C399.4075 235.28625 400.315 235.8225 401.25 236.375 C492 290 582.75 343.625 808.24829102 476.87402344 C810.08728211 477.96067774 811.92631225 479.04726596 813.76538086 480.13378906 C818.26246815 482.79077938 822.75893996 485.44879783 827.25390625 488.109375 C835.14472355 492.77833357 843.0385274 497.44174049 850.953125 502.0703125 C863.52389316 509.42276871 876.06481512 516.81615369 888.53955078 524.33105469 C899.58657924 530.97506577 910.71767408 537.47383485 921.84532166 543.98144531 C930.03449203 548.77252426 938.19813062 553.60677744 946.36279297 558.43945312 C950.90719099 561.12856553 955.45372726 563.8140587 960 566.5 C961.83334305 567.58331689 963.66667639 568.66665021 965.5 569.75 C966.4075 570.28625 967.315 570.8225 968.25 571.375 C1152.50000001 680.25 1152.50000001 680.25 1155.25317383 681.87695312 C1157.07583691 682.95392976 1158.89858997 684.03075414 1160.72143555 685.10742188 C1165.46879498 687.91173336 1170.21428991 690.71913427 1174.95703125 693.53125 C1175.93736328 694.11197266 1176.91769531 694.69269531 1177.92773438 695.29101562 C1179.78769686 696.39288914 1181.64711378 697.49568433 1183.50585938 698.59960938 C1185.19494285 699.59974144 1186.8937584 700.58365532 1188.6027832 701.54931641 C1191 703 1191 703 1193.15307617 704.74365234 C1195.52403175 706.51758515 1197.07519641 707.4722245 1200 708 C1205.0612143 706.35791535 1209.27777252 703.52176388 1213.6875 700.625 C1214.9788229 699.81617748 1216.27255888 699.0111956 1217.56860352 698.20996094 C1220.17491953 696.59306674 1222.76864372 694.95856552 1225.35351562 693.30761719 C1230.30414228 690.1564835 1235.36794916 687.20456932 1240.4375 684.25 C1242.2078438 683.20449967 1243.97738183 682.15763367 1245.74609375 681.109375 C1252.08432277 677.3577679 1258.42577049 673.61161468 1264.76708984 669.86523438 C1269.26358865 667.20853775 1273.75950453 664.550868 1278.25390625 661.890625 C1286.14472355 657.22166643 1294.0385274 652.55825951 1301.953125 647.9296875 C1313.50246804 641.17464772 1325.03888674 634.4042851 1336.5 627.5 C1347.36803522 620.95299083 1358.30215754 614.52435555 1369.25405884 608.11920166 C1369.85471161 607.76791199 1370.45536438 607.41662231 1371.07421875 607.0546875 C1371.96661758 606.53282867 1371.96661758 606.53282867 1372.87704468 606.00042725 C1378.2612875 602.85033286 1383.63240517 599.67835222 1389 596.5 C1394.96663009 592.96693676 1400.93993333 589.44572896 1406.92578125 585.9453125 C1407.52643402 585.59402283 1408.12708679 585.24273315 1408.74594116 584.88079834 C1409.35313995 584.52568176 1409.96033875 584.17056519 1410.5859375 583.8046875 C1420.92438869 577.75807889 1431.24062855 571.68034425 1441.5 565.5 C1452.36803522 558.95299083 1463.30215754 552.52435555 1474.25405884 546.11920166 C1474.85471161 545.76791199 1475.45536438 545.41662231 1476.07421875 545.0546875 C1476.96661758 544.53282867 1476.96661758 544.53282867 1477.87704468 544.00042725 C1483.2612875 540.85033286 1488.63240517 537.67835222 1494 534.5 C1499.96663009 530.96693676 1505.93993333 527.44572896 1511.92578125 523.9453125 C1512.52643402 523.59402283 1513.12708679 523.24273315 1513.74594116 522.88079834 C1514.35313995 522.52568176 1514.96033875 522.17056519 1515.5859375 521.8046875 C1525.92438869 515.75807889 1536.24062855 509.68034425 1546.5 503.5 C1557.36803522 496.95299083 1568.30215754 490.52435555 1579.25405884 484.11920166 C1579.85471161 483.76791199 1580.45536438 483.41662231 1581.07421875 483.0546875 C1581.96661758 482.53282867 1581.96661758 482.53282867 1582.87704468 482.00042725 C1588.2612875 478.85033286 1593.63240517 475.67835222 1599 472.5 C1604.96663009 468.96693676 1610.93993333 465.44572896 1616.92578125 461.9453125 C1617.52643402 461.59402283 1618.12708679 461.24273315 1618.74594116 460.88079834 C1619.35313995 460.52568176 1619.96033875 460.17056519 1620.5859375 459.8046875 C1630.92438869 453.75807889 1641.24062855 447.68034425 1651.5 441.5 C1662.36803522 434.95299083 1673.30215754 428.52435555 1684.25405884 422.11920166 C1684.85471161 421.76791199 1685.45536438 421.41662231 1686.07421875 421.0546875 C1686.96661758 420.53282867 1686.96661758 420.53282867 1687.87704468 420.00042725 C1693.2612875 416.85033286 1698.63240517 413.67835222 1704 410.5 C1709.96663009 406.96693676 1715.93993333 403.44572896 1721.92578125 399.9453125 C1722.52643402 399.59402283 1723.12708679 399.24273315 1723.74594116 398.88079834 C1724.35313995 398.52568176 1724.96033875 398.17056519 1725.5859375 397.8046875 C1735.92438869 391.75807889 1746.24062855 385.68034425 1756.5 379.5 C1767.36803522 372.95299083 1778.30215754 366.52435555 1789.25405884 360.11920166 C1789.85471161 359.76791199 1790.45536438 359.41662231 1791.07421875 359.0546875 C1791.96661758 358.53282867 1791.96661758 358.53282867 1792.87704468 358.00042725 C1798.2612875 354.85033286 1803.63240517 351.67835222 1809 348.5 C1814.96663009 344.96693676 1820.93993333 341.44572896 1826.92578125 337.9453125 C1827.52643402 337.59402283 1828.12708679 337.24273315 1828.74594116 336.88079834 C1829.35313995 336.52568176 1829.96033875 336.17056519 1830.5859375 335.8046875 C1840.92438869 329.75807889 1851.24062855 323.68034425 1861.5 317.5 C1872.36803522 310.95299083 1883.30215754 304.52435555 1894.25405884 298.11920166 C1894.85471161 297.76791199 1895.45536438 297.41662231 1896.07421875 297.0546875 C1896.96661758 296.53282867 1896.96661758 296.53282867 1897.87704468 296.00042725 C1903.2612875 292.85033286 1908.63240517 289.67835222 1914 286.5 C1919.96663009 282.96693676 1925.93993333 279.44572896 1931.92578125 275.9453125 C1932.52643402 275.59402283 1933.12708679 275.24273315 1933.74594116 274.88079834 C1934.35313995 274.52568176 1934.96033875 274.17056519 1935.5859375 273.8046875 C1945.92438869 267.75807889 1956.24062855 261.68034425 1966.5 255.5 C1977.36803522 248.95299083 1988.30215754 242.52435555 1999.25405884 236.11920166 C1999.85471161 235.76791199 2000.45536438 235.41662231 2001.07421875 235.0546875 C2001.66915131 234.70678162 2002.26408386 234.35887573 2002.87704468 234.00042725 C2008.2612875 230.85033286 2013.63240517 227.67835222 2019 224.5 C2024.96663009 220.96693676 2030.93993333 217.44572896 2036.92578125 213.9453125 C2037.52643402 213.59402283 2038.12708679 213.24273315 2038.74594116 212.88079834 C2039.35313995 212.52568176 2039.96033875 212.17056519 2040.5859375 211.8046875 C2050.92438869 205.75807889 2061.24062855 199.68034425 2071.5 193.5 C2082.36803522 186.95299083 2093.30215754 180.52435555 2104.25405884 174.11920166 C2105.15503799 173.59226715 2105.15503799 173.59226715 2106.07421875 173.0546875 C2106.66915131 172.70678162 2107.26408386 172.35887573 2107.87704468 172.00042725 C2113.2612875 168.85033286 2118.63240517 165.67835222 2124 162.5 C2129.96663009 158.96693676 2135.93993333 155.44572896 2141.92578125 151.9453125 C2142.82676041 151.41837799 2142.82676041 151.41837799 2143.74594116 150.88079834 C2144.35313995 150.52568176 2144.96033875 150.17056519 2145.5859375 149.8046875 C2155.92438869 143.75807889 2166.24062855 137.68034425 2176.5 131.5 C2187.36803522 124.95299083 2198.30215754 118.52435555 2209.25405884 112.11920166 C2209.85471161 111.76791199 2210.45536438 111.41662231 2211.07421875 111.0546875 C2211.66915131 110.70678162 2212.26408386 110.35887573 2212.87704468 110.00042725 C2218.2612875 106.85033286 2223.63240517 103.67835222 2229 100.5 C2234.96663009 96.96693676 2240.93993333 93.44572896 2246.92578125 89.9453125 C2247.52643402 89.59402283 2248.12708679 89.24273315 2248.74594116 88.88079834 C2249.35313995 88.52568176 2249.96033875 88.17056519 2250.5859375 87.8046875 C2260.92438869 81.75807889 2271.24062855 75.68034425 2281.5 69.5 C2292.36803522 62.95299083 2303.30215754 56.52435555 2314.25405884 50.11920166 C2314.85471161 49.76791199 2315.45536438 49.41662231 2316.07421875 49.0546875 C2316.66915131 48.70678162 2317.26408386 48.35887573 2317.87704468 48.00042725 C2323.2612875 44.85033286 2328.63240517 41.67835222 2334 38.5 C2339.96663009 34.96693675 2345.93993424 31.44573052 2351.92578125 27.9453125 C2352.52774826 27.59325241 2353.12971527 27.24119232 2353.74992371 26.87846375 C2354.66225517 26.34489006 2354.66225517 26.34489006 2355.59301758 25.80053711 C2370.12405344 17.301819 2384.58696376 8.69768721 2399 0 C2399.495 0.99 2399.495 0.99 2400 2 C2391.02894694 15.25576824 2381.80220154 28.295417 2372.375 41.22949219 C2365.67951731 50.4237097 2359.12527232 59.69056334 2352.73657227 69.10083008 C2348.96631684 74.63627386 2345.07623317 80.06433435 2341.08886719 85.44482422 C2337.18113666 90.72435747 2333.39279734 96.08245089 2329.61865234 101.45800781 C2325.98047079 106.63205092 2322.28230647 111.75942932 2318.5625 116.875 C2314.05887862 123.07522799 2309.67892801 129.34715397 2305.375 135.6875 C2301.06671551 142.0337122 2296.65663267 148.27931683 2292.09106445 154.44262695 C2286.59625797 161.86882063 2281.30852251 169.44015641 2276 177 C2269.9264198 185.64209887 2263.82655845 194.26162548 2257.625 202.8125 C2252.41316317 209.99938158 2247.30692209 217.25502775 2242.23095703 224.53833008 C2237.85145249 230.81149404 2233.38977654 237.02040505 2228.89453125 243.2109375 C2224.2647985 249.6006413 2219.74304594 256.06257904 2215.23266602 262.53686523 C2211.35817799 268.088202 2207.42051683 273.5886333 2203.4375 279.0625 C2198.98968443 285.17580311 2194.67654457 291.36528733 2190.4375 297.625 C2185.92771166 304.28117989 2181.24402438 310.75913755 2176.37646484 317.15722656 C2172.48978229 322.28739141 2168.82525013 327.54295748 2165.20996094 332.86669922 C2161.77166166 337.91631836 2158.22158851 342.87462896 2154.625 347.8125 C2150.09806838 354.03240858 2145.69432303 360.32174293 2141.375 366.6875 C2137.06629601 373.03463392 2132.65628941 379.28161545 2128.08886719 385.44482422 C2124.18113666 390.72435747 2120.39279734 396.08245089 2116.61865234 401.45800781 C2112.98047079 406.63205092 2109.28230647 411.75942932 2105.5625 416.875 C2101.05887862 423.07522799 2096.67892801 429.34715397 2092.375 435.6875 C2088.066153 442.0345408 2083.65629367 448.2816097 2079.08886719 454.44482422 C2075.18113666 459.72435747 2071.39279734 465.08245089 2067.61865234 470.45800781 C2063.98047079 475.63205092 2060.28230647 480.75942932 2056.5625 485.875 C2052.05887862 492.07522799 2047.67892801 498.34715397 2043.375 504.6875 C2039.06671551 511.0337122 2034.65663267 517.27931683 2030.09106445 523.44262695 C2024.59625797 530.86882063 2019.30852251 538.44015641 2014 546 C2007.9264198 554.64209887 2001.82655845 563.26162548 1995.625 571.8125 C1990.41316317 578.99938158 1985.30692209 586.25502775 1980.23095703 593.53833008 C1975.85145249 599.81149404 1971.38977654 606.02040505 1966.89453125 612.2109375 C1962.2647985 618.6006413 1957.74304594 625.06257904 1953.23266602 631.53686523 C1949.35817799 637.088202 1945.42051683 642.5886333 1941.4375 648.0625 C1936.98968443 654.17580311 1932.67654457 660.36528733 1928.4375 666.625 C1923.92771166 673.28117989 1919.24402438 679.75913755 1914.37646484 686.15722656 C1910.48978229 691.28739141 1906.82525013 696.54295748 1903.20996094 701.86669922 C1899.77166394 706.91631501 1896.22168238 711.87469999 1892.625 716.8125 C1888.11364411 723.00875564 1883.73396731 729.27800446 1879.4375 735.625 C1874.92784772 742.28126841 1870.24401918 748.75914439 1865.37646484 755.15722656 C1861.48978229 760.28739141 1857.82525013 765.54295748 1854.20996094 770.86669922 C1850.77166166 775.91631836 1847.22158851 780.87462896 1843.625 785.8125 C1839.09806838 792.03240858 1834.69432303 798.32174293 1830.375 804.6875 C1826.06629601 811.03463392 1821.65628941 817.28161545 1817.08886719 823.44482422 C1813.18113666 828.72435747 1809.39279734 834.08245089 1805.61865234 839.45800781 C1801.98047079 844.63205092 1798.28230647 849.75942932 1794.5625 854.875 C1790.05887862 861.07522799 1785.67892801 867.34715397 1781.375 873.6875 C1777.06671551 880.0337122 1772.65663267 886.27931683 1768.09106445 892.44262695 C1762.59625797 899.86882063 1757.30852251 907.44015641 1752 915 C1745.9264198 923.64209887 1739.82655845 932.26162548 1733.625 940.8125 C1728.41316317 947.99938158 1723.30692209 955.25502775 1718.23095703 962.53833008 C1713.85145249 968.81149404 1709.38977654 975.02040505 1704.89453125 981.2109375 C1700.2647985 987.6006413 1695.74304594 994.06257904 1691.23266602 1000.53686523 C1687.35817799 1006.088202 1683.42051683 1011.5886333 1679.4375 1017.0625 C1674.98968443 1023.17580311 1670.67654457 1029.36528733 1666.4375 1035.625 C1661.92771166 1042.28117989 1657.24402438 1048.75913755 1652.37646484 1055.15722656 C1648.48978229 1060.28739141 1644.82525013 1065.54295748 1641.20996094 1070.86669922 C1637.77166394 1075.91631501 1634.22168238 1080.87469999 1630.625 1085.8125 C1626.11364411 1092.00875564 1621.73396731 1098.27800446 1617.4375 1104.625 C1612.92784772 1111.28126841 1608.24401918 1117.75914439 1603.37646484 1124.15722656 C1599.48978229 1129.28739141 1595.82525013 1134.54295748 1592.20996094 1139.86669922 C1588.77166166 1144.91631836 1585.22158851 1149.87462896 1581.625 1154.8125 C1577.09806838 1161.03240858 1572.69432303 1167.32174293 1568.375 1173.6875 C1564.06629601 1180.03463392 1559.65628941 1186.28161545 1555.08886719 1192.44482422 C1551.18113666 1197.72435747 1547.39279734 1203.08245089 1543.61865234 1208.45800781 C1539.98047079 1213.63205092 1536.28230647 1218.75942932 1532.5625 1223.875 C1528.05887862 1230.07522799 1523.67892801 1236.34715397 1519.375 1242.6875 C1515.06671551 1249.0337122 1510.65663267 1255.27931683 1506.09106445 1261.44262695 C1500.59625797 1268.86882063 1495.30852251 1276.44015641 1490 1284 C1483.9264198 1292.64209887 1477.82655845 1301.26162548 1471.625 1309.8125 C1466.41316317 1316.99938158 1461.30692209 1324.25502775 1456.23095703 1331.53833008 C1451.85145249 1337.81149404 1447.38977654 1344.02040505 1442.89453125 1350.2109375 C1438.8695304 1355.76602342 1434.92227619 1361.37200988 1431 1367 C1426.03561013 1374.12329672 1420.9961115 1381.18540362 1415.89453125 1388.2109375 C1411.2647985 1394.6006413 1406.74304594 1401.06257904 1402.23266602 1407.53686523 C1398.35817632 1413.08820441 1394.42041054 1418.58855424 1390.4375 1424.0625 C1385.97411462 1430.19948557 1381.6367868 1436.40892978 1377.375 1442.6875 C1373.06616959 1449.03455099 1368.65629302 1455.28161058 1364.08886719 1461.44482422 C1360.18113666 1466.72435747 1356.39279734 1472.08245089 1352.61865234 1477.45800781 C1348.98047079 1482.63205092 1345.28230647 1487.75942932 1341.5625 1492.875 C1337.05887862 1499.07522799 1332.67892801 1505.34715397 1328.375 1511.6875 C1324.06671551 1518.0337122 1319.65663267 1524.27931683 1315.09106445 1530.44262695 C1309.59625797 1537.86882063 1304.30852251 1545.44015641 1299 1553 C1292.9264198 1561.64209887 1286.82655845 1570.26162548 1280.625 1578.8125 C1275.41316317 1585.99938158 1270.30692209 1593.25502775 1265.23095703 1600.53833008 C1260.85145249 1606.81149404 1256.38977654 1613.02040505 1251.89453125 1619.2109375 C1247.8695304 1624.76602342 1243.92227619 1630.37200988 1240 1636 C1235.04072957 1643.11595094 1230.00744541 1650.17154068 1224.90991211 1657.18896484 C1220.1401527 1663.7702002 1215.47785148 1670.42424356 1210.84375 1677.1015625 C1207.33207923 1682.14907036 1203.72563033 1687.10816582 1200 1692 C1195.74852541 1688.19550196 1192.76904203 1683.54678309 1189.5625 1678.875 C1188.30453023 1677.05910222 1187.04539143 1675.24401381 1185.78515625 1673.4296875 C1185.15109863 1672.51670898 1184.51704102 1671.60373047 1183.86376953 1670.66308594 C1181.12023058 1666.74292312 1178.31436333 1662.86947876 1175.5 1659 C1170.32747714 1651.87803386 1165.26407638 1644.68531809 1160.23266602 1637.46313477 C1156.35817632 1631.91179559 1152.42041054 1626.41144576 1148.4375 1620.9375 C1143.97411462 1614.80051443 1139.6367868 1608.59107022 1135.375 1602.3125 C1131.0667321 1595.9662776 1126.65663202 1589.72068231 1122.09106445 1583.55737305 C1116.59625797 1576.13117937 1111.30852251 1568.55984359 1106 1561 C1099.9264198 1552.35790113 1093.82655845 1543.73837452 1087.625 1535.1875 C1082.41376776 1528.00145213 1077.30724949 1520.74723058 1072.2331543 1513.46386719 C1068.3585303 1507.91226336 1064.42058329 1502.41168318 1060.4375 1496.9375 C1055.97411462 1490.80051443 1051.6367868 1484.59107022 1047.375 1478.3125 C1043.0667321 1471.9662776 1038.65663202 1465.72068231 1034.09106445 1459.55737305 C1028.59625797 1452.13117937 1023.30852251 1444.55984359 1018 1437 C1016.02255116 1434.18628753 1014.0434093 1431.37377732 1012.0625 1428.5625 C1011.56943359 1427.86253906 1011.07636719 1427.16257812 1010.56835938 1426.44140625 C1006.9417973 1421.30495257 1003.25882038 1416.21138485 999.5625 1411.125 C995.0590758 1404.92462359 990.67893295 1398.65285332 986.375 1392.3125 C982.06671551 1385.9662878 977.65663267 1379.72068317 973.09106445 1373.55737305 C967.59625797 1366.13117937 962.30852251 1358.55984359 957 1351 C950.9264198 1342.35790113 944.82655845 1333.73837452 938.625 1325.1875 C933.41376776 1318.00145213 928.30724949 1310.74723058 923.2331543 1303.46386719 C919.3585303 1297.91226336 915.42058329 1292.41168318 911.4375 1286.9375 C906.97411462 1280.80051443 902.6367868 1274.59107022 898.375 1268.3125 C894.0667321 1261.9662776 889.65663202 1255.72068231 885.09106445 1249.55737305 C879.59625797 1242.13117937 874.30852251 1234.55984359 869 1227 C862.9264198 1218.35790113 856.82655845 1209.73837452 850.625 1201.1875 C845.41376776 1194.00145213 840.30724949 1186.74723058 835.2331543 1179.46386719 C831.3585303 1173.91226336 827.42058329 1168.41168318 823.4375 1162.9375 C818.97411462 1156.80051443 814.6367868 1150.59107022 810.375 1144.3125 C806.0667321 1137.9662776 801.65663202 1131.72068231 797.09106445 1125.55737305 C791.59625797 1118.13117937 786.30852251 1110.55984359 781 1103 C774.9264198 1094.35790113 768.82655845 1085.73837452 762.625 1077.1875 C757.41376776 1070.00145213 752.30724949 1062.74723058 747.2331543 1055.46386719 C743.3585303 1049.91226336 739.42058329 1044.41168318 735.4375 1038.9375 C730.97411462 1032.80051443 726.6367868 1026.59107022 722.375 1020.3125 C718.0667321 1013.9662776 713.65663202 1007.72068231 709.09106445 1001.55737305 C703.59625797 994.13117937 698.30852251 986.55984359 693 979 C691.02255116 976.18628753 689.0434093 973.37377732 687.0625 970.5625 C686.56943359 969.86253906 686.07636719 969.16257812 685.56835938 968.44140625 C681.9417973 963.30495257 678.25882038 958.21138485 674.5625 953.125 C670.0590758 946.92462359 665.67893295 940.65285332 661.375 934.3125 C657.06671551 927.9662878 652.65663267 921.72068317 648.09106445 915.55737305 C642.59625797 908.13117937 637.30852251 900.55984359 632 893 C625.9264198 884.35790113 619.82655845 875.73837452 613.625 867.1875 C608.41376776 860.00145213 603.30724949 852.74723058 598.2331543 845.46386719 C594.3585303 839.91226336 590.42058329 834.41168318 586.4375 828.9375 C581.97411462 822.80051443 577.6367868 816.59107022 573.375 810.3125 C569.0667321 803.9662776 564.65663202 797.72068231 560.09106445 791.55737305 C554.59625797 784.13117937 549.30852251 776.55984359 544 769 C537.9264198 760.35790113 531.82655845 751.73837452 525.625 743.1875 C520.41376776 736.00145213 515.30724949 728.74723058 510.2331543 721.46386719 C506.3585303 715.91226336 502.42058329 710.41168318 498.4375 704.9375 C493.97411462 698.80051443 489.6367868 692.59107022 485.375 686.3125 C481.0667321 679.9662776 476.65663202 673.72068231 472.09106445 667.55737305 C466.59625797 660.13117937 461.30852251 652.55984359 456 645 C449.92641769 636.35789813 443.82639116 627.73849819 437.625 619.1875 C431.20423727 610.33027853 424.93570932 601.37019403 418.67578125 592.39892578 C411.53810665 582.18115325 404.31282852 572.03095843 396.99584961 561.94091797 C392.33551967 555.49879892 387.77810256 548.98769232 383.2331543 542.46386719 C379.3585303 536.91226336 375.42058329 531.41168318 371.4375 525.9375 C366.97411462 519.80051443 362.6367868 513.59107022 358.375 507.3125 C354.0667321 500.9662776 349.65663202 494.72068231 345.09106445 488.55737305 C339.59625797 481.13117937 334.30852251 473.55984359 329 466 C322.9264198 457.35790113 316.82655845 448.73837452 310.625 440.1875 C305.41376776 433.00145213 300.30724949 425.74723058 295.2331543 418.46386719 C291.3585303 412.91226336 287.42058329 407.41168318 283.4375 401.9375 C278.97411462 395.80051443 274.6367868 389.59107022 270.375 383.3125 C266.0667321 376.9662776 261.65663202 370.72068231 257.09106445 364.55737305 C251.59625797 357.13117937 246.30852251 349.55984359 241 342 C234.9264198 333.35790113 228.82655845 324.73837452 222.625 316.1875 C217.41376776 309.00145213 212.30724949 301.74723058 207.2331543 294.46386719 C203.3585303 288.91226336 199.42058329 283.41168318 195.4375 277.9375 C190.97411462 271.80051443 186.6367868 265.59107022 182.375 259.3125 C178.0667321 252.9662776 173.65663202 246.72068231 169.09106445 240.55737305 C163.59625797 233.13117937 158.30852251 225.55984359 153 218 C146.92641769 209.35789813 140.82639116 200.73849819 134.625 192.1875 C128.20423727 183.33027853 121.93570932 174.37019403 115.67578125 165.39892578 C108.53810665 155.18115325 101.31282852 145.03095843 93.99584961 134.94091797 C89.33551967 128.49879892 84.77810256 121.98769232 80.2331543 115.46386719 C76.3585303 109.91226336 72.42058329 104.41168318 68.4375 98.9375 C63.97411462 92.80051443 59.6367868 86.59107022 55.375 80.3125 C51.0667321 73.9662776 46.65663202 67.72068231 42.09106445 61.55737305 C36.59625797 54.13117937 31.30852251 46.55984359 26 39 C24.0225511 36.18628744 22.04309765 33.37399683 20.0625 30.5625 C19.57813477 29.87341553 19.09376953 29.18433105 18.59472656 28.47436523 C15.89598021 24.64581826 13.16342686 20.84563431 10.390625 17.0703125 C9.7937085 16.2548999 9.19679199 15.4394873 8.58178711 14.59936523 C7.42655941 13.02457643 6.26613289 11.45358449 5.09985352 9.88696289 C4.31759399 8.81949829 4.31759399 8.81949829 3.51953125 7.73046875 C3.05651611 7.10551514 2.59350098 6.48056152 2.11645508 5.83666992 C0.93632162 3.89524329 0.43033666 2.21977647 0 0 Z " fill="#8B8B8B" transform="translate(0,2217)"/>
<path d="M0 0 C0.33 0 0.66 0 1 0 C1 476.85 1 953.7 1 1445 C-14.71676614 1452.85838307 -14.71676614 1452.85838307 -20.80078125 1455.515625 C-22.18232848 1456.12296314 -23.56383715 1456.73038901 -24.9453125 1457.33789062 C-26.00927246 1457.80352417 -26.00927246 1457.80352417 -27.09472656 1458.27856445 C-41.3142499 1464.50704126 -55.43102857 1470.93933803 -69.5 1477.5 C-83.00703563 1483.79637729 -96.56247941 1489.95814382 -110.19873047 1495.96923828 C-122.36667725 1501.3373708 -134.44574526 1506.88158685 -146.5 1512.5 C-160.00736029 1518.7956966 -173.56246463 1524.95813731 -187.19873047 1530.96923828 C-199.36667725 1536.3373708 -211.44574526 1541.88158685 -223.5 1547.5 C-237.00736029 1553.7956966 -250.56246463 1559.95813731 -264.19873047 1565.96923828 C-276.36667725 1571.3373708 -288.44574526 1576.88158685 -300.5 1582.5 C-314.00736029 1588.7956966 -327.56246463 1594.95813731 -341.19873047 1600.96923828 C-353.36667725 1606.3373708 -365.44574526 1611.88158685 -377.5 1617.5 C-391.00736029 1623.7956966 -404.56246463 1629.95813731 -418.19873047 1635.96923828 C-430.36667725 1641.3373708 -442.44574526 1646.88158685 -454.5 1652.5 C-468.00736029 1658.7956966 -481.56246463 1664.95813731 -495.19873047 1670.96923828 C-507.36667725 1676.3373708 -519.44574526 1681.88158685 -531.5 1687.5 C-545.00736029 1693.7956966 -558.56246463 1699.95813731 -572.19873047 1705.96923828 C-584.36667725 1711.3373708 -596.44574526 1716.88158685 -608.5 1722.5 C-622.00736029 1728.7956966 -635.56246463 1734.95813731 -649.19873047 1740.96923828 C-661.36667725 1746.3373708 -673.44574526 1751.88158685 -685.5 1757.5 C-699.00736029 1763.7956966 -712.56246463 1769.95813731 -726.19873047 1775.96923828 C-738.36667725 1781.3373708 -750.44574526 1786.88158685 -762.5 1792.5 C-776.00736029 1798.7956966 -789.56246463 1804.95813731 -803.19873047 1810.96923828 C-815.36667725 1816.3373708 -827.44574526 1821.88158685 -839.5 1827.5 C-853.00736029 1833.7956966 -866.56246463 1839.95813731 -880.19873047 1845.96923828 C-892.36667725 1851.3373708 -904.44574526 1856.88158685 -916.5 1862.5 C-930.00736029 1868.7956966 -943.56246463 1874.95813731 -957.19873047 1880.96923828 C-969.36667725 1886.3373708 -981.44574526 1891.88158685 -993.5 1897.5 C-1007.00736029 1903.7956966 -1020.56246463 1909.95813731 -1034.19873047 1915.96923828 C-1046.36667725 1921.3373708 -1058.44574526 1926.88158685 -1070.5 1932.5 C-1083.28081689 1938.45705925 -1096.09712323 1944.31205128 -1109 1950 C-1122.04760753 1955.75212418 -1135.009599 1961.67124282 -1147.9375 1967.6875 C-1172.94193768 1979.31202888 -1172.94193768 1979.31202888 -1183.03591919 1983.88638306 C-1184.29295955 1984.4572772 -1185.54874564 1985.03094204 -1186.80319214 1985.60751343 C-1188.499471 1986.38649845 -1190.20076501 1987.15453581 -1191.90234375 1987.921875 C-1193.31761353 1988.56527832 -1193.31761353 1988.56527832 -1194.76147461 1989.22167969 C-1195.50018799 1989.47852539 -1196.23890137 1989.73537109 -1197 1990 C-1197.66 1989.67 -1198.32 1989.34 -1199 1989 C-1190.60774047 1974.58061556 -1182.17596899 1960.1884366 -1173.5 1945.9375 C-1173.15025116 1945.36298096 -1172.80050232 1944.78846191 -1172.44015503 1944.1965332 C-1170.314394 1940.70626875 -1168.18563622 1937.21783882 -1166.05603027 1933.72991943 C-1162.90780994 1928.57271167 -1159.76447571 1923.41253537 -1156.625 1918.25 C-1156.27859467 1917.68051636 -1155.93218933 1917.11103271 -1155.57528687 1916.52429199 C-1149.34082876 1906.26861112 -1143.20792162 1895.95412593 -1137.09240723 1885.62719727 C-1130.40822044 1874.34220658 -1123.63265304 1863.11672205 -1116.78955078 1851.92724609 C-1113.45720526 1846.47638351 -1110.13211648 1841.02112137 -1106.8125 1835.5625 C-1106.45993134 1834.98288513 -1106.10736267 1834.40327026 -1105.74411011 1833.80609131 C-1099.4944103 1823.52489401 -1093.35111783 1813.18244137 -1087.22598267 1802.82669067 C-1081.27511683 1792.77070217 -1075.21004965 1782.79572445 -1069.05615234 1772.86230469 C-1063.79163671 1764.3412933 -1058.66149197 1755.74576968 -1053.5625 1747.125 C-1047.55338676 1736.96700386 -1041.50949814 1726.8328441 -1035.375 1716.75 C-1035.02734589 1716.17844177 -1034.67969177 1715.60688354 -1034.32150269 1715.01800537 C-1031.53662426 1710.44075371 -1028.7475642 1705.86605443 -1025.95825195 1701.29150391 C-1023.51182881 1697.27888858 -1021.06716557 1693.26520814 -1018.625 1689.25 C-1018.10512009 1688.39536667 -1018.10512009 1688.39536667 -1017.57473755 1687.52346802 C-1011.34047445 1677.26805553 -1005.2077531 1666.95384135 -999.09240723 1656.62719727 C-992.40822044 1645.34220658 -985.63265304 1634.11672205 -978.78955078 1622.92724609 C-975.45720522 1617.47638344 -972.13214189 1612.02110597 -968.8125 1606.5625 C-968.46092834 1605.98454681 -968.10935669 1605.40659363 -967.74713135 1604.81112671 C-961.4282014 1594.41649595 -955.21740218 1583.95944837 -949.02383423 1573.48977661 C-943.77472842 1564.62052526 -938.44634129 1555.81186054 -932.98242188 1547.07275391 C-928.12027955 1539.26381256 -923.43341532 1531.35431935 -918.75 1523.4375 C-912.67822045 1513.17546495 -906.57280572 1502.93648721 -900.375 1492.75 C-899.8539267 1491.89334244 -899.8539267 1491.89334244 -899.32232666 1491.01937866 C-896.53717324 1486.44166942 -893.74784212 1481.86651023 -890.95825195 1477.29150391 C-888.51182881 1473.27888858 -886.06716557 1469.26520814 -883.625 1465.25 C-883.27841339 1464.68024445 -882.93182678 1464.11048889 -882.57473755 1463.52346802 C-876.34047445 1453.26805553 -870.2077531 1442.95384135 -864.09240723 1432.62719727 C-857.40822044 1421.34220658 -850.63265304 1410.11672205 -843.78955078 1398.92724609 C-840.45720526 1393.47638351 -837.13211648 1388.02112137 -833.8125 1382.5625 C-833.45993134 1381.98288513 -833.10736267 1381.40327026 -832.74411011 1380.80609131 C-826.4944103 1370.52489401 -820.35111783 1360.18244137 -814.22598267 1349.82669067 C-808.27511683 1339.77070217 -802.21004965 1329.79572445 -796.05615234 1319.86230469 C-790.79163671 1311.3412933 -785.66149197 1302.74576968 -780.5625 1294.125 C-774.55338676 1283.96700386 -768.50949814 1273.8328441 -762.375 1263.75 C-762.02734589 1263.17844177 -761.67969177 1262.60688354 -761.32150269 1262.01800537 C-758.53662426 1257.44075371 -755.7475642 1252.86605443 -752.95825195 1248.29150391 C-750.51182881 1244.27888858 -748.06716557 1240.26520814 -745.625 1236.25 C-745.27841339 1235.68024445 -744.93182678 1235.11048889 -744.57473755 1234.52346802 C-738.34047445 1224.26805553 -732.2077531 1213.95384135 -726.09240723 1203.62719727 C-719.40822044 1192.34220658 -712.63265304 1181.11672205 -705.78955078 1169.92724609 C-702.45720522 1164.47638344 -699.13214189 1159.02110597 -695.8125 1153.5625 C-695.46092834 1152.98454681 -695.10935669 1152.40659363 -694.74713135 1151.81112671 C-688.4282014 1141.41649595 -682.21740218 1130.95944837 -676.02383423 1120.48977661 C-670.77472842 1111.62052526 -665.44634129 1102.81186054 -659.98242188 1094.07275391 C-655.12027955 1086.26381256 -650.43341532 1078.35431935 -645.75 1070.4375 C-639.67822045 1060.17546495 -633.57280572 1049.93648721 -627.375 1039.75 C-626.8539267 1038.89334244 -626.8539267 1038.89334244 -626.32232666 1038.01937866 C-623.53717324 1033.44166942 -620.74784212 1028.86651023 -617.95825195 1024.29150391 C-615.51182881 1020.27888858 -613.06716557 1016.26520814 -610.625 1012.25 C-610.27841339 1011.68024445 -609.93182678 1011.11048889 -609.57473755 1010.52346802 C-603.34047445 1000.26805553 -597.2077531 989.95384135 -591.09240723 979.62719727 C-584.40822044 968.34220658 -577.63265304 957.11672205 -570.78955078 945.92724609 C-567.45720526 940.47638351 -564.13211648 935.02112137 -560.8125 929.5625 C-560.45993134 928.98288513 -560.10736267 928.40327026 -559.74411011 927.80609131 C-553.4944103 917.52489401 -547.35111783 907.18244137 -541.22598267 896.82669067 C-535.27511683 886.77070217 -529.21004965 876.79572445 -523.05615234 866.86230469 C-517.79163671 858.3412933 -512.66149197 849.74576968 -507.5625 841.125 C-501.55338676 830.96700386 -495.50949814 820.8328441 -489.375 810.75 C-489.02734589 810.17844177 -488.67969177 809.60688354 -488.32150269 809.01800537 C-485.53662426 804.44075371 -482.7475642 799.86605443 -479.95825195 795.29150391 C-477.51182881 791.27888858 -475.06716557 787.26520814 -472.625 783.25 C-472.27841339 782.68024445 -471.93182678 782.11048889 -471.57473755 781.52346802 C-465.34047445 771.26805553 -459.2077531 760.95384135 -453.09240723 750.62719727 C-446.40822044 739.34220658 -439.63265304 728.11672205 -432.78955078 716.92724609 C-429.45720522 711.47638344 -426.13214189 706.02110597 -422.8125 700.5625 C-422.28514252 699.69557022 -422.28514252 699.69557022 -421.74713135 698.81112671 C-415.4282014 688.41649595 -409.21740218 677.95944837 -403.02383423 667.48977661 C-397.77472842 658.62052526 -392.44634129 649.81186054 -386.98242188 641.07275391 C-382.12027955 633.26381256 -377.43341532 625.35431935 -372.75 617.4375 C-366.67822045 607.17546495 -360.57280572 596.93648721 -354.375 586.75 C-354.0276178 586.17889496 -353.6802356 585.60778992 -353.32232666 585.01937866 C-350.53717324 580.44166942 -347.74784212 575.86651023 -344.95825195 571.29150391 C-342.51182881 567.27888858 -340.06716557 563.26520814 -337.625 559.25 C-337.27841339 558.68024445 -336.93182678 558.11048889 -336.57473755 557.52346802 C-330.34047445 547.26805553 -324.2077531 536.95384135 -318.09240723 526.62719727 C-311.40822044 515.34220658 -304.63265304 504.11672205 -297.78955078 492.92724609 C-294.45720526 487.47638351 -291.13211648 482.02112137 -287.8125 476.5625 C-287.45993134 475.98288513 -287.10736267 475.40327026 -286.74411011 474.80609131 C-280.4944103 464.52489401 -274.35111783 454.18244137 -268.22598267 443.82669067 C-262.27511683 433.77070217 -256.21004965 423.79572445 -250.05615234 413.86230469 C-244.79163671 405.3412933 -239.66149197 396.74576968 -234.5625 388.125 C-228.55338676 377.96700386 -222.50949814 367.8328441 -216.375 357.75 C-216.02734589 357.17844177 -215.67969177 356.60688354 -215.32150269 356.01800537 C-212.53662426 351.44075371 -209.7475642 346.86605443 -206.95825195 342.29150391 C-204.51182879 338.27888853 -202.06724706 334.26515859 -199.625 330.25 C-199.10412308 329.39387115 -199.10412308 329.39387115 -198.57272339 328.52044678 C-192.37935791 318.33433678 -186.29407597 308.08592153 -180.22515869 297.82531738 C-174.27456942 287.76978579 -168.20976841 277.79527049 -162.05615234 267.86230469 C-156.79163671 259.3412933 -151.66149197 250.74576968 -146.5625 242.125 C-140.55338676 231.96700386 -134.50949814 221.8328441 -128.375 211.75 C-128.02734589 211.17844177 -127.67969177 210.60688354 -127.32150269 210.01800537 C-124.53662426 205.44075371 -121.7475642 200.86605443 -118.95825195 196.29150391 C-116.51182881 192.27888858 -114.06716557 188.26520814 -111.625 184.25 C-111.27841339 183.68024445 -110.93182678 183.11048889 -110.57473755 182.52346802 C-104.34047445 172.26805553 -98.2077531 161.95384135 -92.09240723 151.62719727 C-85.40822044 140.34220658 -78.63265304 129.11672205 -71.78955078 117.92724609 C-68.45720526 112.47638351 -65.13211648 107.02112137 -61.8125 101.5625 C-61.283647 100.6930777 -61.283647 100.6930777 -60.74411011 99.80609131 C-54.90647484 90.20276926 -49.15966522 80.5474646 -43.4375 70.875 C-37.04235595 60.06603994 -30.55977523 49.32041133 -23.95068359 38.64038086 C-20.36249349 32.84166605 -16.79534445 27.03129786 -13.26171875 21.19921875 C-12.86776917 20.54907806 -12.47381958 19.89893738 -12.06793213 19.22909546 C-10.14896651 16.06067792 -8.23238825 12.89083377 -6.31787109 9.71972656 C-5.6367627 8.59405273 -4.9556543 7.46837891 -4.25390625 6.30859375 C-3.64877197 5.30626709 -3.0436377 4.30394043 -2.42016602 3.27124023 C-1 1 -1 1 0 0 Z " fill="#8B8B8B" transform="translate(1199,0)"/>
<path d="M0 0 C0 414.15 0 828.3 0 1255 C-13.49299475 1248.25350263 -13.49299475 1248.25350263 -17.8671875 1245.58984375 C-18.84324951 1244.99929199 -19.81931152 1244.40874023 -20.82495117 1243.80029297 C-21.83146729 1243.18557129 -22.8379834 1242.57084961 -23.875 1241.9375 C-26.0764407 1240.60483716 -28.278271 1239.2728177 -30.48046875 1237.94140625 C-31.57407715 1237.27898926 -32.66768555 1236.61657227 -33.79443359 1235.93408203 C-38.57404417 1233.05029871 -43.37843096 1230.20930328 -48.1875 1227.375 C-49.53013916 1226.58307251 -49.53013916 1226.58307251 -50.89990234 1225.77514648 C-52.69922714 1224.71409365 -54.49870559 1223.65330133 -56.29833984 1222.59277344 C-60.86773786 1219.89886844 -65.43367532 1217.19910999 -70 1214.5 C-71.83331714 1213.41663926 -73.66665046 1212.33330591 -75.5 1211.25 C-101.16666667 1196.08333333 -126.83333333 1180.91666667 -152.5 1165.75 C-153.40709717 1165.2139917 -154.31419434 1164.6779834 -155.2487793 1164.12573242 C-157.0861946 1163.03997961 -158.92359689 1161.95420479 -160.76098633 1160.8684082 C-165.28176042 1158.19691439 -169.80274334 1155.52577545 -174.32421875 1152.85546875 C-184.96554957 1146.57023827 -195.60101139 1140.27518174 -206.23236084 1133.9730835 C-216.59295994 1127.83166666 -226.96004974 1121.70131144 -237.33056641 1115.57666016 C-241.88748494 1112.88518587 -246.44370119 1110.19252321 -251 1107.5 C-252.83333009 1106.41666119 -254.66666342 1105.33332785 -256.5 1104.25 C-289.5 1084.75 -322.5 1065.25 -355.5 1045.75 C-356.86064575 1044.94598755 -356.86064575 1044.94598755 -358.2487793 1044.12573242 C-360.0861946 1043.03997961 -361.92359689 1041.95420479 -363.76098633 1040.8684082 C-368.28176042 1038.19691439 -372.80274334 1035.52577545 -377.32421875 1032.85546875 C-387.96554957 1026.57023827 -398.60101139 1020.27518174 -409.23236084 1013.9730835 C-419.59295994 1007.83166666 -429.96004974 1001.70131144 -440.33056641 995.57666016 C-444.88748494 992.88518587 -449.44370119 990.19252321 -454 987.5 C-455.83333009 986.41666119 -457.66666342 985.33332785 -459.5 984.25 C-492.5 964.75 -525.5 945.25 -558.5 925.75 C-559.40709717 925.2139917 -560.31419434 924.6779834 -561.2487793 924.12573242 C-563.0861946 923.03997961 -564.92359689 921.95420479 -566.76098633 920.8684082 C-571.28176042 918.19691439 -575.80274334 915.52577545 -580.32421875 912.85546875 C-590.96554957 906.57023827 -601.60101139 900.27518174 -612.23236084 893.9730835 C-622.59295994 887.83166666 -632.96004974 881.70131144 -643.33056641 875.57666016 C-647.88748494 872.88518587 -652.44370119 870.19252321 -657 867.5 C-658.83333009 866.41666119 -660.66666342 865.33332785 -662.5 864.25 C-695.5 844.75 -728.5 825.25 -761.5 805.75 C-762.40709717 805.2139917 -763.31419434 804.6779834 -764.2487793 804.12573242 C-766.0861946 803.03997961 -767.92359689 801.95420479 -769.76098633 800.8684082 C-774.28176042 798.19691439 -778.80274334 795.52577545 -783.32421875 792.85546875 C-793.96554957 786.57023827 -804.60101139 780.27518174 -815.23236084 773.9730835 C-825.59295994 767.83166666 -835.96004974 761.70131144 -846.33056641 755.57666016 C-850.88748494 752.88518587 -855.44370119 750.19252321 -860 747.5 C-861.83333009 746.41666119 -863.66666342 745.33332785 -865.5 744.25 C-891.16666667 729.08333333 -916.83333333 713.91666667 -942.5 698.75 C-943.40709717 698.2139917 -944.31419434 697.6779834 -945.2487793 697.12573242 C-947.0861946 696.03997961 -948.92359689 694.95420479 -950.76098633 693.8684082 C-955.28176042 691.19691439 -959.80274334 688.52577545 -964.32421875 685.85546875 C-974.96554957 679.57023827 -985.60101139 673.27518174 -996.23236084 666.9730835 C-1006.59295994 660.83166666 -1016.96004974 654.70131144 -1027.33056641 648.57666016 C-1031.88748494 645.88518587 -1036.44370119 643.19252321 -1041 640.5 C-1042.83333009 639.41666119 -1044.66666342 638.33332785 -1046.5 637.25 C-1079.5 617.75 -1112.5 598.25 -1145.5 578.75 C-1146.4079834 578.2135083 -1147.3159668 577.6770166 -1148.25146484 577.12426758 C-1150.080071 576.04363898 -1151.9085222 574.96274811 -1153.73681641 573.8815918 C-1158.39122323 571.12967688 -1163.04844699 568.38273101 -1167.7109375 565.64453125 C-1178.57821742 559.25546462 -1189.35616353 552.75532888 -1200 546 C-1196.68742676 543.27184759 -1193.10453749 541.51757394 -1189.21875 539.76953125 C-1188.54625214 539.46252289 -1187.87375427 539.15551453 -1187.18087769 538.83920288 C-1184.95612176 537.82537683 -1182.72814284 536.81885807 -1180.5 535.8125 C-1178.92126275 535.09508069 -1177.34265167 534.37738365 -1175.76416016 533.65942383 C-1164.25916199 528.43554568 -1152.71038014 523.3119852 -1141.15283203 518.20571899 C-1127.991282 512.38628936 -1114.93118318 506.36168646 -1101.88787842 500.28256226 C-1089.25035689 494.39542901 -1076.55808784 488.65418707 -1063.80126953 483.03076172 C-1051.63332275 477.6626292 -1039.55425474 472.11841315 -1027.5 466.5 C-1013.99263971 460.2043034 -1000.43753537 454.04186269 -986.80126953 448.03076172 C-974.63332275 442.6626292 -962.55425474 437.11841315 -950.5 431.5 C-936.99263971 425.2043034 -923.43753537 419.04186269 -909.80126953 413.03076172 C-897.63332275 407.6626292 -885.55425474 402.11841315 -873.5 396.5 C-859.99263971 390.2043034 -846.43753537 384.04186269 -832.80126953 378.03076172 C-820.63332275 372.6626292 -808.55425474 367.11841315 -796.5 361.5 C-782.99263971 355.2043034 -769.43753537 349.04186269 -755.80126953 343.03076172 C-743.63332275 337.6626292 -731.55425474 332.11841315 -719.5 326.5 C-705.99263971 320.2043034 -692.43753537 314.04186269 -678.80126953 308.03076172 C-666.63332275 302.6626292 -654.55425474 297.11841315 -642.5 291.5 C-628.99263971 285.2043034 -615.43753537 279.04186269 -601.80126953 273.03076172 C-589.63332275 267.6626292 -577.55425474 262.11841315 -565.5 256.5 C-551.99263971 250.2043034 -538.43753537 244.04186269 -524.80126953 238.03076172 C-512.63332275 232.6626292 -500.55425474 227.11841315 -488.5 221.5 C-474.99263971 215.2043034 -461.43753537 209.04186269 -447.80126953 203.03076172 C-435.63332275 197.6626292 -423.55425474 192.11841315 -411.5 186.5 C-397.99263971 180.2043034 -384.43753537 174.04186269 -370.80126953 168.03076172 C-358.63332275 162.6626292 -346.55425474 157.11841315 -334.5 151.5 C-320.99263971 145.2043034 -307.43753537 139.04186269 -293.80126953 133.03076172 C-281.63332275 127.6626292 -269.55425474 122.11841315 -257.5 116.5 C-243.99263971 110.2043034 -230.43753537 104.04186269 -216.80126953 98.03076172 C-204.63332275 92.6626292 -192.55425474 87.11841315 -180.5 81.5 C-166.99263971 75.2043034 -153.43753537 69.04186269 -139.80126953 63.03076172 C-127.63332275 57.6626292 -115.55425474 52.11841315 -103.5 46.5 C-90.00302459 40.20914372 -76.45907543 34.0495761 -62.83248901 28.04486084 C-48.19585492 21.59022044 -33.68189033 14.88027952 -19.18554688 8.1171875 C-18.34201157 7.72405365 -17.49847626 7.3309198 -16.62937927 6.9258728 C-15.0518139 6.19026476 -13.47483845 5.45338966 -11.89857483 4.71499634 C-1.79211654 0 -1.79211654 0 0 0 Z " fill="#393939" transform="translate(1200,1445)"/>
<path d="M0 0 C4.54872997 0.90974599 8.18052891 2.30164068 12.31640625 4.25390625 C13.03197189 4.58598587 13.74753754 4.91806549 14.48478699 5.26020813 C16.03341213 5.97925526 17.580968 6.70060882 19.12756348 7.42401123 C23.31513409 9.38196868 27.51110982 11.32173678 31.70703125 13.26171875 C32.56916229 13.66066345 33.43129333 14.05960815 34.31954956 14.47064209 C42.75540412 18.36572519 51.24771806 22.12777925 59.75 25.875 C73.61517714 31.99268202 87.37673521 38.31567407 101.1126709 44.7177124 C113.02350155 50.26631042 124.97660992 55.69988245 137 61 C150.78277745 67.07568582 164.46155166 73.3550479 178.11376953 79.71826172 C190.0242352 85.26667067 201.97698582 90.70004816 214 96 C227.78277745 102.07568582 241.46155166 108.3550479 255.11376953 114.71826172 C267.0242352 120.26667067 278.97698582 125.70004816 291 131 C304.78277745 137.07568582 318.46155166 143.3550479 332.11376953 149.71826172 C344.0242352 155.26667067 355.97698582 160.70004816 368 166 C381.78277745 172.07568582 395.46155166 178.3550479 409.11376953 184.71826172 C421.0242352 190.26667067 432.97698582 195.70004816 445 201 C458.78277745 207.07568582 472.46155166 213.3550479 486.11376953 219.71826172 C498.0242352 225.26667067 509.97698582 230.70004816 522 236 C535.78277745 242.07568582 549.46155166 248.3550479 563.11376953 254.71826172 C575.0242352 260.26667067 586.97698582 265.70004816 599 271 C612.78277745 277.07568582 626.46155166 283.3550479 640.11376953 289.71826172 C652.0242352 295.26667067 663.97698582 300.70004816 676 306 C689.78277745 312.07568582 703.46155166 318.3550479 717.11376953 324.71826172 C729.0242352 330.26667067 740.97698582 335.70004816 753 341 C766.78277745 347.07568582 780.46155166 353.3550479 794.11376953 359.71826172 C806.02424533 365.26667539 817.97715965 370.69964033 830 376 C844.72245414 382.49208887 859.33226271 389.20939702 873.92041016 395.99731445 C885.88524388 401.56383949 897.87774135 407.06444727 909.89794922 412.51025391 C911.23535896 413.11619461 912.57276131 413.72215163 913.91015625 414.328125 C914.57082092 414.62741913 915.2314856 414.92671326 915.91217041 415.2350769 C920.80018442 417.45126847 925.68082427 419.68323539 930.55859375 421.921875 C945.94726082 428.98234422 961.36759705 435.95654382 976.85513306 442.7975769 C990.01399299 448.61596443 1003.0714298 454.63953138 1016.11212158 460.71743774 C1028.02313473 466.26613029 1039.97642197 471.6997996 1052 477 C1065.78277745 483.07568582 1079.46155166 489.3550479 1093.11376953 495.71826172 C1105.74267368 501.60135033 1118.42551249 507.34064241 1131.17456055 512.9581604 C1145.60518008 519.32126344 1159.91419811 525.93620931 1174.19921875 532.61914062 C1182.72908919 536.60335094 1191.25782815 540.49811454 1200 544 C1196.53372096 546.89081481 1193.02026035 549.28456467 1189.1171875 551.546875 C1188.55408371 551.87498169 1187.99097992 552.20308838 1187.41081238 552.5411377 C1186.19930222 553.24650468 1184.98673959 553.95006654 1183.77322388 554.65197754 C1181.17620888 556.15421383 1178.58439294 557.66531797 1175.99226379 559.17596436 C1174.65022193 559.95801569 1173.30792419 560.73962807 1171.96537781 561.52081299 C1165.30992597 565.39508556 1158.68399299 569.31799362 1152.0625 573.25 C1149.8307522 574.57425756 1147.59898173 575.89847693 1145.3671875 577.22265625 C1144.29823242 577.85703613 1143.22927734 578.49141602 1142.12792969 579.14501953 C1137.31754971 581.99775658 1132.50287619 584.84320687 1127.6875 587.6875 C1126.79877197 588.2124707 1125.91004395 588.73744141 1124.99438477 589.27832031 C1123.21942915 590.32670774 1121.44444559 591.37504786 1119.66943359 592.42333984 C1115.11251507 595.11481413 1110.55629082 597.80746328 1106 600.5 C1100.55892255 603.71540073 1095.11773144 606.93060775 1089.67578125 610.14453125 C1079.61244711 616.08837188 1069.55389578 622.04020729 1059.5 628 C1048.56202683 634.48386001 1037.61796327 640.95732388 1026.66943359 647.42333984 C1022.11251506 650.11481413 1017.55629881 652.80747679 1013 655.5 C1011.16666991 656.58333881 1009.33333658 657.66667215 1007.5 658.75 C1006.13875 659.554375 1006.13875 659.554375 1004.75 660.375 C886.49999994 730.25000004 886.49999994 730.25000004 883.7512207 731.87426758 C881.9138054 732.96002039 880.07640311 734.04579521 878.23901367 735.1315918 C873.71823958 737.80308561 869.19725666 740.47422455 864.67578125 743.14453125 C854.61244711 749.08837188 844.55389578 755.04020729 834.5 761 C823.56202683 767.48386001 812.61796327 773.95732388 801.66943359 780.42333984 C797.11251506 783.11481413 792.55629881 785.80747679 788 788.5 C786.16666991 789.58333881 784.33333658 790.66667215 782.5 791.75 C781.13875 792.554375 781.13875 792.554375 779.75 793.375 C683.50000001 850.24999999 683.50000001 850.24999999 680.7512207 851.87426758 C678.9138054 852.96002039 677.07640311 854.04579521 675.23901367 855.1315918 C670.71823958 857.80308561 666.19725666 860.47422455 661.67578125 863.14453125 C651.61244711 869.08837188 641.55389578 875.04020729 631.5 881 C620.56202683 887.48386001 609.61796327 893.95732388 598.66943359 900.42333984 C594.11251506 903.11481413 589.55629881 905.80747679 585 908.5 C583.16666991 909.58333881 581.33333658 910.66667215 579.5 911.75 C578.13875 912.554375 578.13875 912.554375 576.75 913.375 C480.50000006 970.24999996 480.50000006 970.24999996 477.7512207 971.87426758 C475.9138054 972.96002039 474.07640311 974.04579521 472.23901367 975.1315918 C467.71823958 977.80308561 463.19725666 980.47422455 458.67578125 983.14453125 C448.61244711 989.08837188 438.55389578 995.04020729 428.5 1001 C417.56202683 1007.48386001 406.61796327 1013.95732388 395.66943359 1020.42333984 C391.11251506 1023.11481413 386.55629881 1025.80747679 382 1028.5 C380.16666991 1029.58333881 378.33333658 1030.66667215 376.5 1031.75 C375.5925 1032.28625 374.685 1032.8225 373.75 1033.375 C277.49999995 1090.25000003 277.49999995 1090.25000003 274.7512207 1091.87426758 C272.9138054 1092.96002039 271.07640311 1094.04579521 269.23901367 1095.1315918 C264.71823958 1097.80308561 260.19725666 1100.47422455 255.67578125 1103.14453125 C245.61244711 1109.08837188 235.55389578 1115.04020729 225.5 1121 C214.56202683 1127.48386001 203.61796327 1133.95732388 192.66943359 1140.42333984 C188.11251506 1143.11481413 183.55629881 1145.80747679 179 1148.5 C177.16666991 1149.58333881 175.33333658 1150.66667215 173.5 1151.75 C172.5925 1152.28625 171.685 1152.8225 170.75 1153.375 C74.49999996 1210.25000003 74.49999996 1210.25000003 71.7512207 1211.87426758 C69.9138054 1212.96002039 68.07640311 1214.04579521 66.23901367 1215.1315918 C61.71823958 1217.80308561 57.19725666 1220.47422455 52.67578125 1223.14453125 C50.88801714 1224.20051458 49.10025674 1225.25650419 47.3125 1226.3125 C46.42731689 1226.83521484 45.54213379 1227.35792969 44.63012695 1227.89648438 C39.39263348 1230.99066873 34.15942078 1234.09194486 28.9296875 1237.19921875 C27.11025134 1238.27962548 25.29076984 1239.35995581 23.47128296 1240.4402771 C21.73786952 1241.4700761 20.00527485 1242.50125291 18.27270508 1243.5324707 C17.19657959 1244.17144287 16.1204541 1244.81041504 15.01171875 1245.46875 C14.06772217 1246.03013672 13.12372559 1246.59152344 12.15112305 1247.16992188 C8.13320164 1249.50341059 4.06166829 1251.74351762 0 1254 C0 840.18 0 426.36 0 0 Z " fill="#141414" transform="translate(1200,1446)"/>
<path d="M0 0 C0.33 0.66 0.66 1.32 1 2 C-7.97105306 15.25576824 -17.19779846 28.295417 -26.625 41.22949219 C-33.32048269 50.4237097 -39.87472768 59.69056334 -46.26342773 69.10083008 C-50.03368316 74.63627386 -53.92376683 80.06433435 -57.91113281 85.44482422 C-61.81886334 90.72435747 -65.60720266 96.08245089 -69.38134766 101.45800781 C-73.01952921 106.63205092 -76.71769353 111.75942932 -80.4375 116.875 C-84.94112138 123.07522799 -89.32107199 129.34715397 -93.625 135.6875 C-97.93328449 142.0337122 -102.34336733 148.27931683 -106.90893555 154.44262695 C-112.40374203 161.86882063 -117.69147749 169.44015641 -123 177 C-129.0735802 185.64209887 -135.17344155 194.26162548 -141.375 202.8125 C-146.58683683 209.99938158 -151.69307791 217.25502775 -156.76904297 224.53833008 C-161.14854751 230.81149404 -165.61022346 237.02040505 -170.10546875 243.2109375 C-174.7352015 249.6006413 -179.25695406 256.06257904 -183.76733398 262.53686523 C-187.64182201 268.088202 -191.57948317 273.5886333 -195.5625 279.0625 C-200.01031557 285.17580311 -204.32345543 291.36528733 -208.5625 297.625 C-213.07228834 304.28117989 -217.75597562 310.75913755 -222.62353516 317.15722656 C-226.51021771 322.28739141 -230.17474987 327.54295748 -233.79003906 332.86669922 C-237.22833834 337.91631836 -240.77841149 342.87462896 -244.375 347.8125 C-248.90193162 354.03240858 -253.30567697 360.32174293 -257.625 366.6875 C-261.93370399 373.03463392 -266.34371059 379.28161545 -270.91113281 385.44482422 C-274.81886334 390.72435747 -278.60720266 396.08245089 -282.38134766 401.45800781 C-286.01952921 406.63205092 -289.71769353 411.75942932 -293.4375 416.875 C-297.94112138 423.07522799 -302.32107199 429.34715397 -306.625 435.6875 C-310.933847 442.0345408 -315.34370633 448.2816097 -319.91113281 454.44482422 C-323.81886334 459.72435747 -327.60720266 465.08245089 -331.38134766 470.45800781 C-335.01952921 475.63205092 -338.71769353 480.75942932 -342.4375 485.875 C-346.94112138 492.07522799 -351.32107199 498.34715397 -355.625 504.6875 C-359.93328449 511.0337122 -364.34336733 517.27931683 -368.90893555 523.44262695 C-374.40374203 530.86882063 -379.69147749 538.44015641 -385 546 C-391.0735802 554.64209887 -397.17344155 563.26162548 -403.375 571.8125 C-408.58683683 578.99938158 -413.69307791 586.25502775 -418.76904297 593.53833008 C-423.14854751 599.81149404 -427.61022346 606.02040505 -432.10546875 612.2109375 C-436.7352015 618.6006413 -441.25695406 625.06257904 -445.76733398 631.53686523 C-449.64182201 637.088202 -453.57948317 642.5886333 -457.5625 648.0625 C-462.01031557 654.17580311 -466.32345543 660.36528733 -470.5625 666.625 C-475.07228834 673.28117989 -479.75597562 679.75913755 -484.62353516 686.15722656 C-488.51021771 691.28739141 -492.17474987 696.54295748 -495.79003906 701.86669922 C-499.22833606 706.91631501 -502.77831762 711.87469999 -506.375 716.8125 C-510.88635589 723.00875564 -515.26603269 729.27800446 -519.5625 735.625 C-524.07215228 742.28126841 -528.75598082 748.75914439 -533.62353516 755.15722656 C-537.51021771 760.28739141 -541.17474987 765.54295748 -544.79003906 770.86669922 C-548.22833834 775.91631836 -551.77841149 780.87462896 -555.375 785.8125 C-559.90193162 792.03240858 -564.30567697 798.32174293 -568.625 804.6875 C-572.93370399 811.03463392 -577.34371059 817.28161545 -581.91113281 823.44482422 C-585.81886334 828.72435747 -589.60720266 834.08245089 -593.38134766 839.45800781 C-597.01952921 844.63205092 -600.71769353 849.75942932 -604.4375 854.875 C-608.94112138 861.07522799 -613.32107199 867.34715397 -617.625 873.6875 C-621.93328449 880.0337122 -626.34336733 886.27931683 -630.90893555 892.44262695 C-636.40374203 899.86882063 -641.69147749 907.44015641 -647 915 C-653.0735802 923.64209887 -659.17344155 932.26162548 -665.375 940.8125 C-670.58683683 947.99938158 -675.69307791 955.25502775 -680.76904297 962.53833008 C-685.14854751 968.81149404 -689.61022346 975.02040505 -694.10546875 981.2109375 C-698.7352015 987.6006413 -703.25695406 994.06257904 -707.76733398 1000.53686523 C-711.64182201 1006.088202 -715.57948317 1011.5886333 -719.5625 1017.0625 C-724.01031557 1023.17580311 -728.32345543 1029.36528733 -732.5625 1035.625 C-737.07228834 1042.28117989 -741.75597562 1048.75913755 -746.62353516 1055.15722656 C-750.51021771 1060.28739141 -754.17474987 1065.54295748 -757.79003906 1070.86669922 C-761.22833606 1075.91631501 -764.77831762 1080.87469999 -768.375 1085.8125 C-772.88635589 1092.00875564 -777.26603269 1098.27800446 -781.5625 1104.625 C-786.07215228 1111.28126841 -790.75598082 1117.75914439 -795.62353516 1124.15722656 C-799.51021771 1129.28739141 -803.17474987 1134.54295748 -806.79003906 1139.86669922 C-810.22833834 1144.91631836 -813.77841149 1149.87462896 -817.375 1154.8125 C-821.90193162 1161.03240858 -826.30567697 1167.32174293 -830.625 1173.6875 C-834.93370399 1180.03463392 -839.34371059 1186.28161545 -843.91113281 1192.44482422 C-847.81886334 1197.72435747 -851.60720266 1203.08245089 -855.38134766 1208.45800781 C-859.01952921 1213.63205092 -862.71769353 1218.75942932 -866.4375 1223.875 C-870.94112138 1230.07522799 -875.32107199 1236.34715397 -879.625 1242.6875 C-883.93328449 1249.0337122 -888.34336733 1255.27931683 -892.90893555 1261.44262695 C-898.40374203 1268.86882063 -903.69147749 1276.44015641 -909 1284 C-915.0735802 1292.64209887 -921.17344155 1301.26162548 -927.375 1309.8125 C-932.58683683 1316.99938158 -937.69307791 1324.25502775 -942.76904297 1331.53833008 C-947.14854751 1337.81149404 -951.61022346 1344.02040505 -956.10546875 1350.2109375 C-960.1304696 1355.76602342 -964.07772381 1361.37200988 -968 1367 C-972.96438987 1374.12329672 -978.0038885 1381.18540362 -983.10546875 1388.2109375 C-987.7352015 1394.6006413 -992.25695406 1401.06257904 -996.76733398 1407.53686523 C-1000.64182368 1413.08820441 -1004.57958946 1418.58855424 -1008.5625 1424.0625 C-1013.02588538 1430.19948557 -1017.3632132 1436.40892978 -1021.625 1442.6875 C-1025.93383041 1449.03455099 -1030.34370698 1455.28161058 -1034.91113281 1461.44482422 C-1038.81886334 1466.72435747 -1042.60720266 1472.08245089 -1046.38134766 1477.45800781 C-1050.01952921 1482.63205092 -1053.71769353 1487.75942932 -1057.4375 1492.875 C-1061.94112138 1499.07522799 -1066.32107199 1505.34715397 -1070.625 1511.6875 C-1074.93328449 1518.0337122 -1079.34336733 1524.27931683 -1083.90893555 1530.44262695 C-1089.40374203 1537.86882063 -1094.69147749 1545.44015641 -1100 1553 C-1106.0735802 1561.64209887 -1112.17344155 1570.26162548 -1118.375 1578.8125 C-1123.58683683 1585.99938158 -1128.69307791 1593.25502775 -1133.76904297 1600.53833008 C-1138.14854751 1606.81149404 -1142.61022346 1613.02040505 -1147.10546875 1619.2109375 C-1151.1304696 1624.76602342 -1155.07772381 1630.37200988 -1159 1636 C-1163.44335165 1642.37567013 -1167.93378763 1648.71172489 -1172.5 1655 C-1178.39928644 1663.1242172 -1184.16547502 1671.33745464 -1189.90625 1679.57421875 C-1190.9375 1681.04947917 -1191.96875 1682.52473958 -1193 1684 C-1193.48855469 1684.70463379 -1193.97710938 1685.40926758 -1194.48046875 1686.13525391 C-1195.62853863 1687.77470757 -1196.81052729 1689.39033313 -1198 1691 C-1198.33 1691 -1198.66 1691 -1199 1691 C-1199.46750218 1603.07770481 -1199.91801801 1515.15518514 -1200.22795105 1410.5712738 C-1200.23199512 1409.17387478 -1200.23603921 1407.77647576 -1200.24008334 1406.37907673 C-1200.32484509 1377.04593332 -1200.40362942 1347.7127763 -1200.47551067 1318.37959853 C-1200.51162652 1303.64410726 -1200.54889072 1288.90861908 -1200.58724081 1274.17313347 C-1200.59301903 1271.95037054 -1200.59876446 1269.72760753 -1200.60450853 1267.50484451 C-1200.69322604 1233.28592453 -1200.80653909 1199.06730376 -1200.99127197 1164.84875488 C-1200.99524204 1164.11328166 -1200.9992121 1163.37780844 -1201.00330247 1162.62004815 C-1201.06745956 1150.76238445 -1201.13368488 1138.90473229 -1201.20018477 1127.04708153 C-1201.39174333 1092.88449132 -1201.56795375 1058.72213184 -1201.64305401 1024.55905819 C-1201.64460653 1023.85620551 -1201.64615904 1023.15335282 -1201.64775861 1022.42920157 C-1201.68156943 1006.99814039 -1201.70751849 991.56707636 -1201.7260285 976.13598955 C-1201.7336153 969.9266004 -1201.74233332 963.71721293 -1201.75144005 957.50782585 C-1201.75240944 956.82824469 -1201.75337882 956.14866353 -1201.75437759 955.44848899 C-1201.7861505 933.56860036 -1201.90992401 911.69042424 -1202.08218405 889.81122639 C-1202.26017608 867.1488233 -1202.33537768 844.48780102 -1202.29153994 821.82461865 C-1202.2694754 808.75943565 -1202.32830432 795.70045339 -1202.50312875 782.63639023 C-1202.61197715 773.90617701 -1202.6151994 765.18001728 -1202.53312259 756.44952278 C-1202.48935128 751.47356362 -1202.49093651 746.50930315 -1202.62161229 741.534607 C-1203.31574216 713.50228492 -1203.31574216 713.50228492 -1197.69795307 706.33997655 C-1191.02004785 699.63540105 -1182.25167916 695.93247804 -1173.58563729 692.50422477 C-1168.25363627 690.2673761 -1163.45612601 687.30436452 -1158.5625 684.25 C-1156.79541265 683.19900504 -1155.02618322 682.15159497 -1153.25390625 681.109375 C-1152.39039551 680.59826172 -1151.52688477 680.08714844 -1150.63720703 679.56054688 C-1145.17083134 676.32586132 -1139.70156953 673.09605696 -1134.23291016 669.86523438 C-1129.73641135 667.20853775 -1125.24049547 664.550868 -1120.74609375 661.890625 C-1112.85527645 657.22166643 -1104.9614726 652.55825951 -1097.046875 647.9296875 C-1085.49753196 641.17464772 -1073.96111326 634.4042851 -1062.5 627.5 C-1051.63196478 620.95299083 -1040.69784246 614.52435555 -1029.74594116 608.11920166 C-1029.14528839 607.76791199 -1028.54463562 607.41662231 -1027.92578125 607.0546875 C-1027.03338242 606.53282867 -1027.03338242 606.53282867 -1026.12295532 606.00042725 C-1020.7387125 602.85033286 -1015.36759483 599.67835222 -1010 596.5 C-1004.03336991 592.96693676 -998.06006667 589.44572896 -992.07421875 585.9453125 C-991.47356598 585.59402283 -990.87291321 585.24273315 -990.25405884 584.88079834 C-989.34326065 584.34812347 -989.34326065 584.34812347 -988.4140625 583.8046875 C-978.07561131 577.75807889 -967.75937145 571.68034425 -957.5 565.5 C-946.63196478 558.95299083 -935.69784246 552.52435555 -924.74594116 546.11920166 C-924.14528839 545.76791199 -923.54463562 545.41662231 -922.92578125 545.0546875 C-922.03338242 544.53282867 -922.03338242 544.53282867 -921.12295532 544.00042725 C-915.7387125 540.85033286 -910.36759483 537.67835222 -905 534.5 C-899.03336991 530.96693676 -893.06006667 527.44572896 -887.07421875 523.9453125 C-886.47356598 523.59402283 -885.87291321 523.24273315 -885.25405884 522.88079834 C-884.64686005 522.52568176 -884.03966125 522.17056519 -883.4140625 521.8046875 C-873.07561131 515.75807889 -862.75937145 509.68034425 -852.5 503.5 C-841.63196478 496.95299083 -830.69784246 490.52435555 -819.74594116 484.11920166 C-819.14528839 483.76791199 -818.54463562 483.41662231 -817.92578125 483.0546875 C-817.03338242 482.53282867 -817.03338242 482.53282867 -816.12295532 482.00042725 C-810.7387125 478.85033286 -805.36759483 475.67835222 -800 472.5 C-794.03336991 468.96693676 -788.06006667 465.44572896 -782.07421875 461.9453125 C-781.47356598 461.59402283 -780.87291321 461.24273315 -780.25405884 460.88079834 C-779.64686005 460.52568176 -779.03966125 460.17056519 -778.4140625 459.8046875 C-768.07561131 453.75807889 -757.75937145 447.68034425 -747.5 441.5 C-736.63196478 434.95299083 -725.69784246 428.52435555 -714.74594116 422.11920166 C-714.14528839 421.76791199 -713.54463562 421.41662231 -712.92578125 421.0546875 C-712.03338242 420.53282867 -712.03338242 420.53282867 -711.12295532 420.00042725 C-705.7387125 416.85033286 -700.36759483 413.67835222 -695 410.5 C-689.03336991 406.96693676 -683.06006667 403.44572896 -677.07421875 399.9453125 C-676.47356598 399.59402283 -675.87291321 399.24273315 -675.25405884 398.88079834 C-674.34326065 398.34812347 -674.34326065 398.34812347 -673.4140625 397.8046875 C-663.07561131 391.75807889 -652.75937145 385.68034425 -642.5 379.5 C-631.63196478 372.95299083 -620.69784246 366.52435555 -609.74594116 360.11920166 C-609.14528839 359.76791199 -608.54463562 359.41662231 -607.92578125 359.0546875 C-607.03338242 358.53282867 -607.03338242 358.53282867 -606.12295532 358.00042725 C-600.7387125 354.85033286 -595.36759483 351.67835222 -590 348.5 C-584.03336991 344.96693676 -578.06006667 341.44572896 -572.07421875 337.9453125 C-571.47356598 337.59402283 -570.87291321 337.24273315 -570.25405884 336.88079834 C-569.34326065 336.34812347 -569.34326065 336.34812347 -568.4140625 335.8046875 C-558.07561131 329.75807889 -547.75937145 323.68034425 -537.5 317.5 C-526.63196478 310.95299083 -515.69784246 304.52435555 -504.74594116 298.11920166 C-504.14528839 297.76791199 -503.54463562 297.41662231 -502.92578125 297.0546875 C-502.03338242 296.53282867 -502.03338242 296.53282867 -501.12295532 296.00042725 C-495.7387125 292.85033286 -490.36759483 289.67835222 -485 286.5 C-479.03336991 282.96693676 -473.06006667 279.44572896 -467.07421875 275.9453125 C-466.47356598 275.59402283 -465.87291321 275.24273315 -465.25405884 274.88079834 C-464.34326065 274.34812347 -464.34326065 274.34812347 -463.4140625 273.8046875 C-453.07561131 267.75807889 -442.75937145 261.68034425 -432.5 255.5 C-421.63196478 248.95299083 -410.69784246 242.52435555 -399.74594116 236.11920166 C-399.14528839 235.76791199 -398.54463562 235.41662231 -397.92578125 235.0546875 C-397.33084869 234.70678162 -396.73591614 234.35887573 -396.12295532 234.00042725 C-390.7387125 230.85033286 -385.36759483 227.67835222 -380 224.5 C-374.03336991 220.96693676 -368.06006667 217.44572896 -362.07421875 213.9453125 C-361.47356598 213.59402283 -360.87291321 213.24273315 -360.25405884 212.88079834 C-359.64686005 212.52568176 -359.03966125 212.17056519 -358.4140625 211.8046875 C-348.07561131 205.75807889 -337.75937145 199.68034425 -327.5 193.5 C-316.63196478 186.95299083 -305.69784246 180.52435555 -294.74594116 174.11920166 C-294.14528839 173.76791199 -293.54463562 173.41662231 -292.92578125 173.0546875 C-292.33084869 172.70678162 -291.73591614 172.35887573 -291.12295532 172.00042725 C-285.7387125 168.85033286 -280.36759483 165.67835222 -275 162.5 C-269.03336991 158.96693676 -263.06006667 155.44572896 -257.07421875 151.9453125 C-256.47356598 151.59402283 -255.87291321 151.24273315 -255.25405884 150.88079834 C-254.64686005 150.52568176 -254.03966125 150.17056519 -253.4140625 149.8046875 C-243.07561131 143.75807889 -232.75937145 137.68034425 -222.5 131.5 C-211.63196478 124.95299083 -200.69784246 118.52435555 -189.74594116 112.11920166 C-189.14528839 111.76791199 -188.54463562 111.41662231 -187.92578125 111.0546875 C-187.33084869 110.70678162 -186.73591614 110.35887573 -186.12295532 110.00042725 C-180.7387125 106.85033286 -175.36759483 103.67835222 -170 100.5 C-164.03336991 96.96693676 -158.06006667 93.44572896 -152.07421875 89.9453125 C-151.47356598 89.59402283 -150.87291321 89.24273315 -150.25405884 88.88079834 C-149.64686005 88.52568176 -149.03966125 88.17056519 -148.4140625 87.8046875 C-138.07561131 81.75807889 -127.75937145 75.68034425 -117.5 69.5 C-106.63196478 62.95299083 -95.69784246 56.52435555 -84.74594116 50.11920166 C-84.14528839 49.76791199 -83.54463562 49.41662231 -82.92578125 49.0546875 C-82.33084869 48.70678162 -81.73591614 48.35887573 -81.12295532 48.00042725 C-75.7387125 44.85033286 -70.36759483 41.67835222 -65 38.5 C-59.03336991 34.96693675 -53.06006576 31.44573052 -47.07421875 27.9453125 C-46.47225174 27.59325241 -45.87028473 27.24119232 -45.25007629 26.87846375 C-44.64185532 26.52274796 -44.03363434 26.16703217 -43.40698242 25.80053711 C-28.87594656 17.301819 -14.41303624 8.69768721 0 0 Z " fill="#3B3B3A" transform="translate(2399,2217)"/>
</svg>
