<?xml version="1.0" encoding="UTF-8"?>
<svg version="1.1" xmlns="http://www.w3.org/2000/svg" width="200" height="200">
<path d="M0 0 C0.71020294 -0.00040283 1.42040588 -0.00080566 2.15213013 -0.0012207 C13.90113568 0.0371407 24.62351792 1.09211907 35.625 5.4375 C36.36234375 5.72689453 37.0996875 6.01628906 37.859375 6.31445312 C47.86074184 10.37535294 56.34716755 15.479322 64.625 22.4375 C65.47320312 23.12328125 66.32140625 23.8090625 67.1953125 24.515625 C83.02075748 37.91020225 93.12883685 55.62574909 98.625 75.4375 C98.80973877 76.06640137 98.99447754 76.69530273 99.18481445 77.34326172 C101.12262986 84.72516793 101.06689943 92.22425394 101.0625 99.8125 C101.06290283 100.52270294 101.06330566 101.23290588 101.0637207 101.96463013 C101.0253593 113.71363568 99.97038093 124.43601792 95.625 135.4375 C95.33560547 136.17484375 95.04621094 136.9121875 94.74804688 137.671875 C90.68714706 147.67324184 85.583178 156.15966755 78.625 164.4375 C77.93921875 165.28570312 77.2534375 166.13390625 76.546875 167.0078125 C63.15229775 182.83325748 45.43675091 192.94133685 25.625 198.4375 C24.99174805 198.62296387 24.35849609 198.80842773 23.70605469 198.99951172 C16.4394311 200.90364567 9.09346336 200.83558765 1.625 200.8125 C0.59087479 200.81118576 0.59087479 200.81118576 -0.46414185 200.80984497 C-28.25907394 200.69325109 -51.95212472 190.38877865 -71.97265625 170.91015625 C-82.63507818 159.68742158 -89.98970579 146.88216764 -95.375 132.4375 C-95.81070313 131.30054688 -96.24640625 130.16359375 -96.6953125 128.9921875 C-102.74433445 109.74529946 -101.76198902 84.13961809 -94.375 65.4375 C-94.08560547 64.70015625 -93.79621094 63.9628125 -93.49804688 63.203125 C-89.43714706 53.20175816 -84.333178 44.71533245 -77.375 36.4375 C-76.68921875 35.58929688 -76.0034375 34.74109375 -75.296875 33.8671875 C-61.90229775 18.04174252 -44.18675091 7.93366315 -24.375 2.4375 C-23.74609863 2.25276123 -23.11719727 2.06802246 -22.46923828 1.87768555 C-15.08733207 -0.06012986 -7.58824606 -0.00439943 0 0 Z " fill="#F7931A" transform="translate(99.375,-0.43749999999999994)"/>
<path d="M0 0 C4.95 0.99 4.95 0.99 10 2 C9.37679879 8.43974581 8.35991738 14.67572401 7 21 C9.64 21.33 12.28 21.66 15 22 C16.32 16.39 17.64 10.78 19 5 C22.63 5.66 26.26 6.32 30 7 C29.855625 8.27875 29.71125 9.5575 29.5625 10.875 C29.00185355 15.91280884 28.49498469 20.95536879 28 26 C29.21236328 26.58007812 29.21236328 26.58007812 30.44921875 27.171875 C31.51785156 27.69265625 32.58648437 28.2134375 33.6875 28.75 C35.27111328 29.51570313 35.27111328 29.51570313 36.88671875 30.296875 C41.88638362 33.03194888 45.59346098 35.72890324 48 41 C48.83562515 47.54573033 49.1128447 54.56043121 45 60 C42.81710371 62.22418038 40.62903969 64.31502456 38 66 C37.01 66 36.02 66 35 66 C35 66.66 35 67.32 35 68 C35.7425 68.226875 36.485 68.45375 37.25 68.6875 C41.72962172 70.82550128 44.07157969 74.53331706 46 79 C47.3740614 86.98401995 44.94412517 94.09778096 41 101 C37.14677011 105.76042237 32.00652061 108.83041348 26 110 C18.82624649 110.48544197 12.1496865 109.89371081 5 109 C4.01 114.28 3.02 119.56 2 125 C-3.13111614 126.02622323 -5.18779389 125.6040687 -10 124 C-9.32036523 119.65825558 -8.44151215 115.40296481 -7.4375 111.125 C-7.16808594 109.97257812 -6.89867187 108.82015625 -6.62109375 107.6328125 C-6.41613281 106.76398438 -6.21117187 105.89515625 -6 105 C-8.97 104.67 -11.94 104.34 -15 104 C-15.12375 104.94875 -15.2475 105.8975 -15.375 106.875 C-16.04765054 111.62254802 -17.02728241 116.30640153 -18 121 C-19.43791516 120.85831863 -20.8753237 120.71148957 -22.3125 120.5625 C-23.51326172 120.44068359 -23.51326172 120.44068359 -24.73828125 120.31640625 C-27 120 -27 120 -30 119 C-28.02 109.595 -28.02 109.595 -26 100 C-27.98 99.71125 -29.96 99.4225 -32 99.125 C-37.10328816 98.34416903 -42.02435012 97.36586467 -47 96 C-46.38621882 91.08975054 -44.27516294 87.33014883 -42 83 C-38.04 83 -34.08 83 -30 83 C-28.28192509 76.27620417 -26.57320541 69.55012584 -24.87304688 62.82177734 C-24.29357215 60.5340189 -23.71156282 58.24690088 -23.12695312 55.96044922 C-22.28626276 52.67060478 -21.45476559 49.37855201 -20.625 46.0859375 C-20.36251465 45.06696381 -20.1000293 44.04799011 -19.82958984 42.99813843 C-18.63923107 38.23894873 -17.6479814 33.9502616 -18 29 C-19.0725 28.525625 -20.145 28.05125 -21.25 27.5625 C-21.85328125 27.29566406 -22.4565625 27.02882813 -23.078125 26.75390625 C-25.03142029 25.98767456 -26.95623897 25.46572431 -29 25 C-28.85831863 23.56208484 -28.71148957 22.1246763 -28.5625 20.6875 C-28.48128906 19.88699219 -28.40007812 19.08648437 -28.31640625 18.26171875 C-28 16 -28 16 -27 13 C-22.62839267 13.37669179 -18.54272124 13.84362269 -14.3125 15.0625 C-10.61156226 16.27232247 -10.61156226 16.27232247 -5 16 C-3.35 10.72 -1.7 5.44 0 0 Z " fill="#FEFCF9" transform="translate(96,35)"/>
<path d="M0 0 C10.467798 0.44543821 18.83409878 3.39778199 27 10 C28.87174644 13.74349288 28.44771687 18.3434476 27.375 22.3125 C24.64775269 25.65957625 21.65342329 26.81656173 17.39453125 27.2890625 C9.60547545 27.51542872 2.48948823 26.02940971 -5 24 C-5.20508299 18.83984728 -4.56269256 14.68301752 -3.0625 9.75 C-2.52302734 7.94789062 -2.52302734 7.94789062 -1.97265625 6.109375 C-1.33376778 4.06698454 -0.67672279 2.03016836 0 0 Z " fill="#F7951F" transform="translate(91,102)"/>
<path d="M0 0 C8.80419792 0.2060557 16.00629322 2.38664625 22.625 8.375 C24.47878161 11.91403761 24.63344408 14.05857015 24 18 C21.45862841 21.15954305 19.85377341 22.71540886 16 24 C8.32701636 24.545821 1.99299775 24.29082247 -5 21 C-3.47512736 13.96212627 -1.77149249 6.9796804 0 0 Z " fill="#F79620" transform="translate(99,69)"/>
</svg>
